<mxfile host="Electron" modified="2023-12-04T06:27:20.357Z" agent="Mozilla/5.0 (Windows NT 10.0; Win64; x64) AppleWebKit/537.36 (KHTML, like Gecko) draw.io/22.1.2 Chrome/114.0.5735.289 Electron/25.9.4 Safari/537.36" etag="Wi0IRQ3gRXzSTg4lLoAc" version="22.1.2" type="device">
  <diagram name="第 1 页" id="rH-Fpi9tXlsFGJ0fhbZm">
    <mxGraphModel dx="1124" dy="840" grid="0" gridSize="10" guides="1" tooltips="1" connect="1" arrows="1" fold="1" page="0" pageScale="1" pageWidth="827" pageHeight="1169" math="1" shadow="0">
      <root>
        <mxCell id="0" />
        <mxCell id="1" parent="0" />
        <mxCell id="TRP02oGcFqluon3LZnlB-630" value="" style="rounded=1;whiteSpace=wrap;html=1;dashed=1;rotation=0;" parent="1" vertex="1">
          <mxGeometry x="-63" y="-33" width="260" height="400" as="geometry" />
        </mxCell>
        <mxCell id="s36JOqq-BG1c5jQaZJkn-42" value="" style="endArrow=open;html=1;rounded=0;exitX=0.436;exitY=-0.035;exitDx=0;exitDy=0;exitPerimeter=0;endFill=0;opacity=40;" parent="1" edge="1">
          <mxGeometry width="50" height="50" relative="1" as="geometry">
            <mxPoint x="137.69" y="239" as="sourcePoint" />
            <mxPoint x="137.18" y="120" as="targetPoint" />
          </mxGeometry>
        </mxCell>
        <mxCell id="s36JOqq-BG1c5jQaZJkn-41" value="" style="endArrow=open;html=1;rounded=0;exitX=0.436;exitY=-0.035;exitDx=0;exitDy=0;exitPerimeter=0;endFill=0;opacity=70;" parent="1" edge="1">
          <mxGeometry width="50" height="50" relative="1" as="geometry">
            <mxPoint x="132.69" y="243" as="sourcePoint" />
            <mxPoint x="132.18" y="124" as="targetPoint" />
          </mxGeometry>
        </mxCell>
        <mxCell id="s36JOqq-BG1c5jQaZJkn-35" value="" style="endArrow=open;html=1;rounded=0;exitX=0.436;exitY=-0.035;exitDx=0;exitDy=0;exitPerimeter=0;opacity=70;endFill=0;" parent="1" edge="1">
          <mxGeometry width="50" height="50" relative="1" as="geometry">
            <mxPoint x="-0.5500000000000327" y="243" as="sourcePoint" />
            <mxPoint x="-1.1300000000000026" y="190" as="targetPoint" />
          </mxGeometry>
        </mxCell>
        <mxCell id="s36JOqq-BG1c5jQaZJkn-36" value="" style="endArrow=classic;html=1;rounded=0;exitX=0.436;exitY=-0.035;exitDx=0;exitDy=0;exitPerimeter=0;opacity=40;" parent="1" edge="1">
          <mxGeometry width="50" height="50" relative="1" as="geometry">
            <mxPoint x="4.2499999999999645" y="239" as="sourcePoint" />
            <mxPoint x="3.8399999999999963" y="190" as="targetPoint" />
          </mxGeometry>
        </mxCell>
        <mxCell id="TRP02oGcFqluon3LZnlB-629" value="" style="endArrow=classic;html=1;rounded=0;exitX=0.436;exitY=-0.035;exitDx=0;exitDy=0;exitPerimeter=0;opacity=40;" parent="1" edge="1">
          <mxGeometry width="50" height="50" relative="1" as="geometry">
            <mxPoint x="64.49999999999997" y="239" as="sourcePoint" />
            <mxPoint x="64.09" y="190" as="targetPoint" />
          </mxGeometry>
        </mxCell>
        <mxCell id="TRP02oGcFqluon3LZnlB-628" value="" style="endArrow=classic;html=1;rounded=0;exitX=0.436;exitY=-0.035;exitDx=0;exitDy=0;exitPerimeter=0;opacity=40;" parent="1" edge="1">
          <mxGeometry width="50" height="50" relative="1" as="geometry">
            <mxPoint x="41.31999999999996" y="165.5" as="sourcePoint" />
            <mxPoint x="40.99999999999999" y="120" as="targetPoint" />
          </mxGeometry>
        </mxCell>
        <mxCell id="TRP02oGcFqluon3LZnlB-626" style="edgeStyle=orthogonalEdgeStyle;rounded=0;orthogonalLoop=1;jettySize=auto;html=1;entryX=1;entryY=0.25;entryDx=0;entryDy=0;opacity=40;" parent="1" edge="1">
          <mxGeometry relative="1" as="geometry">
            <mxPoint x="110.5" y="330" as="sourcePoint" />
            <mxPoint x="111" y="253.26999999999998" as="targetPoint" />
            <Array as="points">
              <mxPoint x="111" y="330.27" />
            </Array>
          </mxGeometry>
        </mxCell>
        <mxCell id="TRP02oGcFqluon3LZnlB-625" style="edgeStyle=orthogonalEdgeStyle;rounded=0;orthogonalLoop=1;jettySize=auto;html=1;opacity=40;" parent="1" edge="1">
          <mxGeometry relative="1" as="geometry">
            <mxPoint x="86.99999999999999" y="330" as="sourcePoint" />
            <mxPoint x="86.99999999999999" y="260" as="targetPoint" />
            <Array as="points">
              <mxPoint x="87.24999999999999" y="330" />
            </Array>
          </mxGeometry>
        </mxCell>
        <mxCell id="TRP02oGcFqluon3LZnlB-624" style="edgeStyle=orthogonalEdgeStyle;rounded=0;orthogonalLoop=1;jettySize=auto;html=1;opacity=40;" parent="1" edge="1">
          <mxGeometry relative="1" as="geometry">
            <mxPoint x="-17.199999999999996" y="330" as="sourcePoint" />
            <mxPoint x="-17.199999999999996" y="255" as="targetPoint" />
            <Array as="points">
              <mxPoint x="-16.949999999999996" y="330" />
            </Array>
          </mxGeometry>
        </mxCell>
        <mxCell id="TRP02oGcFqluon3LZnlB-622" style="edgeStyle=orthogonalEdgeStyle;rounded=0;orthogonalLoop=1;jettySize=auto;html=1;entryX=0.281;entryY=-0.028;entryDx=0;entryDy=0;entryPerimeter=0;opacity=60;endArrow=open;endFill=0;" parent="1" edge="1">
          <mxGeometry relative="1" as="geometry">
            <mxPoint x="115.25" y="329.73" as="sourcePoint" />
            <mxPoint x="115.70100000000002" y="263.00199999999995" as="targetPoint" />
            <Array as="points">
              <mxPoint x="115.5" y="329.73" />
            </Array>
          </mxGeometry>
        </mxCell>
        <mxCell id="TRP02oGcFqluon3LZnlB-621" style="edgeStyle=orthogonalEdgeStyle;rounded=0;orthogonalLoop=1;jettySize=auto;html=1;entryX=0.281;entryY=-0.028;entryDx=0;entryDy=0;entryPerimeter=0;opacity=60;endArrow=open;endFill=0;exitX=0.611;exitY=-0.014;exitDx=0;exitDy=0;exitPerimeter=0;" parent="1" source="TRP02oGcFqluon3LZnlB-584" edge="1">
          <mxGeometry relative="1" as="geometry">
            <mxPoint x="82.30500000000006" y="331.51200000000006" as="sourcePoint" />
            <mxPoint x="81.821" y="265.00199999999995" as="targetPoint" />
            <Array as="points" />
          </mxGeometry>
        </mxCell>
        <mxCell id="TRP02oGcFqluon3LZnlB-619" style="edgeStyle=orthogonalEdgeStyle;rounded=0;orthogonalLoop=1;jettySize=auto;html=1;entryX=0.281;entryY=-0.028;entryDx=0;entryDy=0;entryPerimeter=0;opacity=60;endArrow=open;endFill=0;" parent="1" edge="1">
          <mxGeometry relative="1" as="geometry">
            <mxPoint x="-12.000000000000007" y="330.73" as="sourcePoint" />
            <mxPoint x="-11.548999999999985" y="264.00199999999995" as="targetPoint" />
            <Array as="points">
              <mxPoint x="-11.750000000000007" y="330.73" />
            </Array>
          </mxGeometry>
        </mxCell>
        <mxCell id="TRP02oGcFqluon3LZnlB-614" value="" style="endArrow=open;html=1;rounded=0;exitX=0.436;exitY=-0.035;exitDx=0;exitDy=0;exitPerimeter=0;opacity=70;endFill=0;" parent="1" edge="1">
          <mxGeometry width="50" height="50" relative="1" as="geometry">
            <mxPoint x="60.359999999999964" y="243" as="sourcePoint" />
            <mxPoint x="59.779999999999994" y="190" as="targetPoint" />
          </mxGeometry>
        </mxCell>
        <mxCell id="TRP02oGcFqluon3LZnlB-613" value="" style="endArrow=open;html=1;rounded=0;exitX=0.436;exitY=-0.035;exitDx=0;exitDy=0;exitPerimeter=0;opacity=70;endFill=0;" parent="1" edge="1">
          <mxGeometry width="50" height="50" relative="1" as="geometry">
            <mxPoint x="36.989999999999974" y="169.5" as="sourcePoint" />
            <mxPoint x="36.46999999999999" y="130" as="targetPoint" />
          </mxGeometry>
        </mxCell>
        <mxCell id="TRP02oGcFqluon3LZnlB-245" value="" style="rounded=1;whiteSpace=wrap;html=1;fillColor=#f9f7ed;strokeColor=#36393d;opacity=20;rotation=0;" parent="1" vertex="1">
          <mxGeometry x="-39.35000000000002" y="165.5" width="142.55" height="33" as="geometry" />
        </mxCell>
        <mxCell id="TRP02oGcFqluon3LZnlB-489" value="" style="rounded=1;whiteSpace=wrap;html=1;fillColor=#f9f7ed;strokeColor=#36393d;opacity=80;" parent="1" vertex="1">
          <mxGeometry x="-37.10000000000002" y="169.5" width="142.55" height="33" as="geometry" />
        </mxCell>
        <mxCell id="TRP02oGcFqluon3LZnlB-355" value="&lt;div style=&quot;text-align: left;&quot;&gt;&lt;br&gt;&lt;/div&gt;" style="rounded=1;whiteSpace=wrap;html=1;fillColor=#F8DEDD;opacity=20;" parent="1" vertex="1">
          <mxGeometry x="-59" y="94" width="230.37" height="42" as="geometry" />
        </mxCell>
        <mxCell id="TRP02oGcFqluon3LZnlB-354" value="&lt;div style=&quot;text-align: left;&quot;&gt;&lt;br&gt;&lt;/div&gt;" style="rounded=1;whiteSpace=wrap;html=1;fillColor=#F8DEDD;opacity=70;" parent="1" vertex="1">
          <mxGeometry x="-54" y="100" width="235.37" height="40" as="geometry" />
        </mxCell>
        <mxCell id="-zyO3lyWJpN4oPfw9Fx_-15" value="" style="whiteSpace=wrap;html=1;aspect=fixed;rounded=1;dashed=1;strokeColor=default;rotation=0;" parent="1" vertex="1">
          <mxGeometry x="222.5" y="20" width="187.85" height="289" as="geometry" />
        </mxCell>
        <mxCell id="-zyO3lyWJpN4oPfw9Fx_-45" style="edgeStyle=orthogonalEdgeStyle;rounded=0;orthogonalLoop=1;jettySize=auto;html=1;entryX=0.5;entryY=1;entryDx=0;entryDy=0;endArrow=open;endFill=0;" parent="1" source="-zyO3lyWJpN4oPfw9Fx_-2" target="-zyO3lyWJpN4oPfw9Fx_-17" edge="1">
          <mxGeometry relative="1" as="geometry">
            <mxPoint x="320" y="339.5" as="targetPoint" />
          </mxGeometry>
        </mxCell>
        <mxCell id="-zyO3lyWJpN4oPfw9Fx_-2" value="&lt;font face=&quot;Times New Roman&quot;&gt;Input&lt;br&gt;Embedding&lt;/font&gt;" style="rounded=1;whiteSpace=wrap;html=1;fillColor=#d5e8d4;strokeColor=#82b366;" parent="1" vertex="1">
          <mxGeometry x="280" y="319" width="80" height="30" as="geometry" />
        </mxCell>
        <mxCell id="-zyO3lyWJpN4oPfw9Fx_-4" value="" style="endArrow=open;html=1;rounded=0;exitX=0.5;exitY=0;exitDx=0;exitDy=0;entryX=0.5;entryY=1;entryDx=0;entryDy=0;endFill=0;" parent="1" source="-zyO3lyWJpN4oPfw9Fx_-5" target="-zyO3lyWJpN4oPfw9Fx_-2" edge="1">
          <mxGeometry width="50" height="50" relative="1" as="geometry">
            <mxPoint x="319.76" y="387" as="sourcePoint" />
            <mxPoint x="319.76" y="357" as="targetPoint" />
          </mxGeometry>
        </mxCell>
        <mxCell id="-zyO3lyWJpN4oPfw9Fx_-5" value="&lt;font style=&quot;font-size: 12px;&quot; face=&quot;Times New Roman&quot;&gt;Inputs&lt;/font&gt;" style="rounded=1;whiteSpace=wrap;html=1;fillColor=default;strokeColor=none;" parent="1" vertex="1">
          <mxGeometry x="290" y="367" width="60" height="20" as="geometry" />
        </mxCell>
        <mxCell id="-zyO3lyWJpN4oPfw9Fx_-16" value="&lt;font face=&quot;Times New Roman&quot;&gt;Decoder&lt;/font&gt;" style="text;html=1;align=center;verticalAlign=middle;resizable=0;points=[];autosize=1;strokeColor=none;fillColor=none;" parent="1" vertex="1">
          <mxGeometry x="350" y="25.5" width="60" height="30" as="geometry" />
        </mxCell>
        <mxCell id="-zyO3lyWJpN4oPfw9Fx_-21" style="edgeStyle=orthogonalEdgeStyle;rounded=0;orthogonalLoop=1;jettySize=auto;html=1;endArrow=open;endFill=0;" parent="1" source="-zyO3lyWJpN4oPfw9Fx_-17" target="-zyO3lyWJpN4oPfw9Fx_-18" edge="1">
          <mxGeometry relative="1" as="geometry" />
        </mxCell>
        <mxCell id="-zyO3lyWJpN4oPfw9Fx_-17" value="&lt;font face=&quot;Times New Roman&quot;&gt;RMSNorm&lt;/font&gt;" style="rounded=1;whiteSpace=wrap;html=1;fillColor=#b1ddf0;strokeColor=#10739e;" parent="1" vertex="1">
          <mxGeometry x="280" y="257" width="80" height="30" as="geometry" />
        </mxCell>
        <mxCell id="TRP02oGcFqluon3LZnlB-639" style="edgeStyle=orthogonalEdgeStyle;rounded=0;orthogonalLoop=1;jettySize=auto;html=1;exitX=0.5;exitY=0;exitDx=0;exitDy=0;entryX=0.5;entryY=1;entryDx=0;entryDy=0;endArrow=open;endFill=0;" parent="1" source="-zyO3lyWJpN4oPfw9Fx_-18" target="s36JOqq-BG1c5jQaZJkn-43" edge="1">
          <mxGeometry relative="1" as="geometry">
            <mxPoint x="320" y="187" as="targetPoint" />
          </mxGeometry>
        </mxCell>
        <mxCell id="-zyO3lyWJpN4oPfw9Fx_-18" value="Multi-head&lt;br&gt;Self Attention" style="rounded=1;whiteSpace=wrap;html=1;fillColor=#fad9d5;strokeColor=#ae4132;opacity=80;" parent="1" vertex="1">
          <mxGeometry x="280" y="203" width="80" height="34" as="geometry" />
        </mxCell>
        <mxCell id="-zyO3lyWJpN4oPfw9Fx_-61" value="" style="edgeStyle=orthogonalEdgeStyle;rounded=0;orthogonalLoop=1;jettySize=auto;html=1;endArrow=open;endFill=0;" parent="1" source="-zyO3lyWJpN4oPfw9Fx_-58" target="-zyO3lyWJpN4oPfw9Fx_-60" edge="1">
          <mxGeometry relative="1" as="geometry" />
        </mxCell>
        <mxCell id="-zyO3lyWJpN4oPfw9Fx_-58" value="&lt;font face=&quot;Times New Roman&quot;&gt;RMSNorm&lt;/font&gt;" style="rounded=1;whiteSpace=wrap;html=1;fillColor=#b1ddf0;strokeColor=#10739e;" parent="1" vertex="1">
          <mxGeometry x="280" y="118" width="80" height="30" as="geometry" />
        </mxCell>
        <mxCell id="TRP02oGcFqluon3LZnlB-645" style="edgeStyle=orthogonalEdgeStyle;rounded=0;orthogonalLoop=1;jettySize=auto;html=1;exitX=0.5;exitY=0;exitDx=0;exitDy=0;entryX=0.5;entryY=1;entryDx=0;entryDy=0;endArrow=open;endFill=0;" parent="1" source="-zyO3lyWJpN4oPfw9Fx_-60" edge="1">
          <mxGeometry relative="1" as="geometry">
            <mxPoint x="320" y="54.5" as="targetPoint" />
          </mxGeometry>
        </mxCell>
        <mxCell id="-zyO3lyWJpN4oPfw9Fx_-60" value="&lt;font face=&quot;Times New Roman&quot;&gt;Multi-Layer Perceptron&lt;/font&gt;" style="whiteSpace=wrap;html=1;fillColor=#eeeeee;strokeColor=#36393d;rounded=1;" parent="1" vertex="1">
          <mxGeometry x="260" y="73" width="120" height="25" as="geometry" />
        </mxCell>
        <mxCell id="-zyO3lyWJpN4oPfw9Fx_-68" style="edgeStyle=orthogonalEdgeStyle;rounded=0;orthogonalLoop=1;jettySize=auto;html=1;entryX=0.5;entryY=1;entryDx=0;entryDy=0;endArrow=open;endFill=0;exitX=0.5;exitY=0;exitDx=0;exitDy=0;" parent="1" source="s36JOqq-BG1c5jQaZJkn-49" target="-zyO3lyWJpN4oPfw9Fx_-67" edge="1">
          <mxGeometry relative="1" as="geometry">
            <mxPoint x="320" y="24.5" as="sourcePoint" />
          </mxGeometry>
        </mxCell>
        <mxCell id="TRP02oGcFqluon3LZnlB-648" style="edgeStyle=orthogonalEdgeStyle;rounded=0;orthogonalLoop=1;jettySize=auto;html=1;exitX=0.5;exitY=0;exitDx=0;exitDy=0;entryX=0.5;entryY=1;entryDx=0;entryDy=0;endArrow=open;endFill=0;" parent="1" source="-zyO3lyWJpN4oPfw9Fx_-67" target="-zyO3lyWJpN4oPfw9Fx_-71" edge="1">
          <mxGeometry relative="1" as="geometry" />
        </mxCell>
        <mxCell id="-zyO3lyWJpN4oPfw9Fx_-67" value="&lt;font face=&quot;Times New Roman&quot;&gt;RMSNorm&lt;/font&gt;" style="rounded=1;whiteSpace=wrap;html=1;fillColor=#b1ddf0;strokeColor=#10739e;" parent="1" vertex="1">
          <mxGeometry x="280" y="-26" width="80" height="30" as="geometry" />
        </mxCell>
        <mxCell id="-zyO3lyWJpN4oPfw9Fx_-71" value="&lt;font face=&quot;Times New Roman&quot;&gt;Outputs&lt;/font&gt;" style="rounded=1;whiteSpace=wrap;html=1;strokeColor=none;" parent="1" vertex="1">
          <mxGeometry x="280" y="-66" width="80" height="20" as="geometry" />
        </mxCell>
        <mxCell id="TRP02oGcFqluon3LZnlB-3" value="" style="endArrow=open;html=1;rounded=0;entryX=1;entryY=0.5;entryDx=0;entryDy=0;endFill=0;" parent="1" target="s36JOqq-BG1c5jQaZJkn-43" edge="1">
          <mxGeometry width="50" height="50" relative="1" as="geometry">
            <mxPoint x="320" y="298" as="sourcePoint" />
            <mxPoint x="360" y="172" as="targetPoint" />
            <Array as="points">
              <mxPoint x="361" y="298" />
              <mxPoint x="400" y="298" />
              <mxPoint x="400" y="178" />
            </Array>
          </mxGeometry>
        </mxCell>
        <mxCell id="TRP02oGcFqluon3LZnlB-67" style="edgeStyle=orthogonalEdgeStyle;rounded=0;orthogonalLoop=1;jettySize=auto;html=1;entryX=0.086;entryY=1.01;entryDx=0;entryDy=0;entryPerimeter=0;endArrow=open;endFill=0;exitX=0.089;exitY=-0.003;exitDx=0;exitDy=0;exitPerimeter=0;" parent="1" source="TRP02oGcFqluon3LZnlB-584" target="TRP02oGcFqluon3LZnlB-254" edge="1">
          <mxGeometry relative="1" as="geometry">
            <mxPoint x="-0.7500000000000071" y="330.03" as="sourcePoint" />
            <Array as="points" />
            <mxPoint x="-4.873950000000043" y="276.99799999999993" as="targetPoint" />
          </mxGeometry>
        </mxCell>
        <mxCell id="TRP02oGcFqluon3LZnlB-68" style="edgeStyle=orthogonalEdgeStyle;rounded=0;orthogonalLoop=1;jettySize=auto;html=1;endArrow=open;endFill=0;exitX=0.58;exitY=0.029;exitDx=0;exitDy=0;exitPerimeter=0;entryX=0.436;entryY=1.093;entryDx=0;entryDy=0;entryPerimeter=0;" parent="1" source="TRP02oGcFqluon3LZnlB-584" target="TRP02oGcFqluon3LZnlB-295" edge="1">
          <mxGeometry relative="1" as="geometry">
            <mxPoint x="78.48500000000004" y="329.964" as="sourcePoint" />
            <mxPoint x="77.37" y="280" as="targetPoint" />
            <Array as="points" />
          </mxGeometry>
        </mxCell>
        <mxCell id="TRP02oGcFqluon3LZnlB-57" value="&lt;i&gt;&lt;b&gt;$$X$$&lt;/b&gt;&lt;/i&gt;" style="text;html=1;align=center;verticalAlign=middle;resizable=0;points=[];autosize=1;strokeColor=none;fillColor=none;" parent="1" vertex="1">
          <mxGeometry x="127" y="332" width="53" height="26" as="geometry" />
        </mxCell>
        <mxCell id="TRP02oGcFqluon3LZnlB-66" value="" style="rounded=1;whiteSpace=wrap;html=1;fillColor=#F9F7ED;strokeColor=#36393d;" parent="1" vertex="1">
          <mxGeometry x="-34.55000000000002" y="175" width="142.55" height="32" as="geometry" />
        </mxCell>
        <mxCell id="TRP02oGcFqluon3LZnlB-70" value="" style="shape=table;startSize=0;container=1;collapsible=0;childLayout=tableLayout;" parent="1" vertex="1">
          <mxGeometry x="-0.7500000000000071" y="300" width="22.12" height="24" as="geometry" />
        </mxCell>
        <mxCell id="TRP02oGcFqluon3LZnlB-71" value="" style="shape=tableRow;horizontal=0;startSize=0;swimlaneHead=0;swimlaneBody=0;strokeColor=inherit;top=0;left=0;bottom=0;right=0;collapsible=0;dropTarget=0;fillColor=none;points=[[0,0.5],[1,0.5]];portConstraint=eastwest;" parent="TRP02oGcFqluon3LZnlB-70" vertex="1">
          <mxGeometry width="22.12" height="8" as="geometry" />
        </mxCell>
        <mxCell id="TRP02oGcFqluon3LZnlB-72" value="" style="shape=partialRectangle;html=1;whiteSpace=wrap;connectable=0;strokeColor=inherit;overflow=hidden;fillColor=none;top=0;left=0;bottom=0;right=0;pointerEvents=1;" parent="TRP02oGcFqluon3LZnlB-71" vertex="1">
          <mxGeometry width="7" height="8" as="geometry">
            <mxRectangle width="7" height="8" as="alternateBounds" />
          </mxGeometry>
        </mxCell>
        <mxCell id="TRP02oGcFqluon3LZnlB-73" value="" style="shape=partialRectangle;html=1;whiteSpace=wrap;connectable=0;strokeColor=inherit;overflow=hidden;fillColor=none;top=0;left=0;bottom=0;right=0;pointerEvents=1;" parent="TRP02oGcFqluon3LZnlB-71" vertex="1">
          <mxGeometry x="7" width="8" height="8" as="geometry">
            <mxRectangle width="8" height="8" as="alternateBounds" />
          </mxGeometry>
        </mxCell>
        <mxCell id="TRP02oGcFqluon3LZnlB-74" value="" style="shape=partialRectangle;html=1;whiteSpace=wrap;connectable=0;strokeColor=inherit;overflow=hidden;fillColor=none;top=0;left=0;bottom=0;right=0;pointerEvents=1;" parent="TRP02oGcFqluon3LZnlB-71" vertex="1">
          <mxGeometry x="15" width="7" height="8" as="geometry">
            <mxRectangle width="7" height="8" as="alternateBounds" />
          </mxGeometry>
        </mxCell>
        <mxCell id="TRP02oGcFqluon3LZnlB-75" value="" style="shape=tableRow;horizontal=0;startSize=0;swimlaneHead=0;swimlaneBody=0;strokeColor=inherit;top=0;left=0;bottom=0;right=0;collapsible=0;dropTarget=0;fillColor=none;points=[[0,0.5],[1,0.5]];portConstraint=eastwest;" parent="TRP02oGcFqluon3LZnlB-70" vertex="1">
          <mxGeometry y="8" width="22.12" height="8" as="geometry" />
        </mxCell>
        <mxCell id="TRP02oGcFqluon3LZnlB-76" value="" style="shape=partialRectangle;html=1;whiteSpace=wrap;connectable=0;strokeColor=inherit;overflow=hidden;fillColor=none;top=0;left=0;bottom=0;right=0;pointerEvents=1;" parent="TRP02oGcFqluon3LZnlB-75" vertex="1">
          <mxGeometry width="7" height="8" as="geometry">
            <mxRectangle width="7" height="8" as="alternateBounds" />
          </mxGeometry>
        </mxCell>
        <mxCell id="TRP02oGcFqluon3LZnlB-77" value="" style="shape=partialRectangle;html=1;whiteSpace=wrap;connectable=0;strokeColor=inherit;overflow=hidden;fillColor=none;top=0;left=0;bottom=0;right=0;pointerEvents=1;" parent="TRP02oGcFqluon3LZnlB-75" vertex="1">
          <mxGeometry x="7" width="8" height="8" as="geometry">
            <mxRectangle width="8" height="8" as="alternateBounds" />
          </mxGeometry>
        </mxCell>
        <mxCell id="TRP02oGcFqluon3LZnlB-78" value="" style="shape=partialRectangle;html=1;whiteSpace=wrap;connectable=0;strokeColor=inherit;overflow=hidden;fillColor=none;top=0;left=0;bottom=0;right=0;pointerEvents=1;" parent="TRP02oGcFqluon3LZnlB-75" vertex="1">
          <mxGeometry x="15" width="7" height="8" as="geometry">
            <mxRectangle width="7" height="8" as="alternateBounds" />
          </mxGeometry>
        </mxCell>
        <mxCell id="TRP02oGcFqluon3LZnlB-79" value="" style="shape=tableRow;horizontal=0;startSize=0;swimlaneHead=0;swimlaneBody=0;strokeColor=inherit;top=0;left=0;bottom=0;right=0;collapsible=0;dropTarget=0;fillColor=none;points=[[0,0.5],[1,0.5]];portConstraint=eastwest;" parent="TRP02oGcFqluon3LZnlB-70" vertex="1">
          <mxGeometry y="16" width="22.12" height="8" as="geometry" />
        </mxCell>
        <mxCell id="TRP02oGcFqluon3LZnlB-80" value="" style="shape=partialRectangle;html=1;whiteSpace=wrap;connectable=0;strokeColor=inherit;overflow=hidden;fillColor=none;top=0;left=0;bottom=0;right=0;pointerEvents=1;" parent="TRP02oGcFqluon3LZnlB-79" vertex="1">
          <mxGeometry width="7" height="8" as="geometry">
            <mxRectangle width="7" height="8" as="alternateBounds" />
          </mxGeometry>
        </mxCell>
        <mxCell id="TRP02oGcFqluon3LZnlB-81" value="" style="shape=partialRectangle;html=1;whiteSpace=wrap;connectable=0;strokeColor=inherit;overflow=hidden;fillColor=none;top=0;left=0;bottom=0;right=0;pointerEvents=1;" parent="TRP02oGcFqluon3LZnlB-79" vertex="1">
          <mxGeometry x="7" width="8" height="8" as="geometry">
            <mxRectangle width="8" height="8" as="alternateBounds" />
          </mxGeometry>
        </mxCell>
        <mxCell id="TRP02oGcFqluon3LZnlB-82" value="" style="shape=partialRectangle;html=1;whiteSpace=wrap;connectable=0;strokeColor=inherit;overflow=hidden;fillColor=none;top=0;left=0;bottom=0;right=0;pointerEvents=1;" parent="TRP02oGcFqluon3LZnlB-79" vertex="1">
          <mxGeometry x="15" width="7" height="8" as="geometry">
            <mxRectangle width="7" height="8" as="alternateBounds" />
          </mxGeometry>
        </mxCell>
        <mxCell id="TRP02oGcFqluon3LZnlB-192" value="" style="shape=table;startSize=0;container=1;collapsible=0;childLayout=tableLayout;" parent="1" vertex="1">
          <mxGeometry x="-20.55000000000002" y="181" width="20" height="20" as="geometry" />
        </mxCell>
        <mxCell id="TRP02oGcFqluon3LZnlB-193" value="" style="shape=tableRow;horizontal=0;startSize=0;swimlaneHead=0;swimlaneBody=0;strokeColor=inherit;top=0;left=0;bottom=0;right=0;collapsible=0;dropTarget=0;fillColor=none;points=[[0,0.5],[1,0.5]];portConstraint=eastwest;" parent="TRP02oGcFqluon3LZnlB-192" vertex="1">
          <mxGeometry width="20" height="7" as="geometry" />
        </mxCell>
        <mxCell id="TRP02oGcFqluon3LZnlB-194" value="" style="shape=partialRectangle;html=1;whiteSpace=wrap;connectable=0;strokeColor=inherit;overflow=hidden;fillColor=none;top=0;left=0;bottom=0;right=0;pointerEvents=1;" parent="TRP02oGcFqluon3LZnlB-193" vertex="1">
          <mxGeometry width="7" height="7" as="geometry">
            <mxRectangle width="7" height="7" as="alternateBounds" />
          </mxGeometry>
        </mxCell>
        <mxCell id="TRP02oGcFqluon3LZnlB-195" value="" style="shape=partialRectangle;html=1;whiteSpace=wrap;connectable=0;strokeColor=inherit;overflow=hidden;fillColor=none;top=0;left=0;bottom=0;right=0;pointerEvents=1;" parent="TRP02oGcFqluon3LZnlB-193" vertex="1">
          <mxGeometry x="7" width="6" height="7" as="geometry">
            <mxRectangle width="6" height="7" as="alternateBounds" />
          </mxGeometry>
        </mxCell>
        <mxCell id="TRP02oGcFqluon3LZnlB-196" value="" style="shape=partialRectangle;html=1;whiteSpace=wrap;connectable=0;strokeColor=inherit;overflow=hidden;fillColor=none;top=0;left=0;bottom=0;right=0;pointerEvents=1;" parent="TRP02oGcFqluon3LZnlB-193" vertex="1">
          <mxGeometry x="13" width="7" height="7" as="geometry">
            <mxRectangle width="7" height="7" as="alternateBounds" />
          </mxGeometry>
        </mxCell>
        <mxCell id="TRP02oGcFqluon3LZnlB-197" value="" style="shape=tableRow;horizontal=0;startSize=0;swimlaneHead=0;swimlaneBody=0;strokeColor=inherit;top=0;left=0;bottom=0;right=0;collapsible=0;dropTarget=0;fillColor=none;points=[[0,0.5],[1,0.5]];portConstraint=eastwest;" parent="TRP02oGcFqluon3LZnlB-192" vertex="1">
          <mxGeometry y="7" width="20" height="6" as="geometry" />
        </mxCell>
        <mxCell id="TRP02oGcFqluon3LZnlB-198" value="" style="shape=partialRectangle;html=1;whiteSpace=wrap;connectable=0;strokeColor=inherit;overflow=hidden;fillColor=none;top=0;left=0;bottom=0;right=0;pointerEvents=1;" parent="TRP02oGcFqluon3LZnlB-197" vertex="1">
          <mxGeometry width="7" height="6" as="geometry">
            <mxRectangle width="7" height="6" as="alternateBounds" />
          </mxGeometry>
        </mxCell>
        <mxCell id="TRP02oGcFqluon3LZnlB-199" value="" style="shape=partialRectangle;html=1;whiteSpace=wrap;connectable=0;strokeColor=inherit;overflow=hidden;fillColor=none;top=0;left=0;bottom=0;right=0;pointerEvents=1;" parent="TRP02oGcFqluon3LZnlB-197" vertex="1">
          <mxGeometry x="7" width="6" height="6" as="geometry">
            <mxRectangle width="6" height="6" as="alternateBounds" />
          </mxGeometry>
        </mxCell>
        <mxCell id="TRP02oGcFqluon3LZnlB-200" value="" style="shape=partialRectangle;html=1;whiteSpace=wrap;connectable=0;strokeColor=inherit;overflow=hidden;fillColor=none;top=0;left=0;bottom=0;right=0;pointerEvents=1;" parent="TRP02oGcFqluon3LZnlB-197" vertex="1">
          <mxGeometry x="13" width="7" height="6" as="geometry">
            <mxRectangle width="7" height="6" as="alternateBounds" />
          </mxGeometry>
        </mxCell>
        <mxCell id="TRP02oGcFqluon3LZnlB-201" value="" style="shape=tableRow;horizontal=0;startSize=0;swimlaneHead=0;swimlaneBody=0;strokeColor=inherit;top=0;left=0;bottom=0;right=0;collapsible=0;dropTarget=0;fillColor=none;points=[[0,0.5],[1,0.5]];portConstraint=eastwest;" parent="TRP02oGcFqluon3LZnlB-192" vertex="1">
          <mxGeometry y="13" width="20" height="7" as="geometry" />
        </mxCell>
        <mxCell id="TRP02oGcFqluon3LZnlB-202" value="" style="shape=partialRectangle;html=1;whiteSpace=wrap;connectable=0;strokeColor=inherit;overflow=hidden;fillColor=none;top=0;left=0;bottom=0;right=0;pointerEvents=1;" parent="TRP02oGcFqluon3LZnlB-201" vertex="1">
          <mxGeometry width="7" height="7" as="geometry">
            <mxRectangle width="7" height="7" as="alternateBounds" />
          </mxGeometry>
        </mxCell>
        <mxCell id="TRP02oGcFqluon3LZnlB-203" value="" style="shape=partialRectangle;html=1;whiteSpace=wrap;connectable=0;strokeColor=inherit;overflow=hidden;fillColor=none;top=0;left=0;bottom=0;right=0;pointerEvents=1;" parent="TRP02oGcFqluon3LZnlB-201" vertex="1">
          <mxGeometry x="7" width="6" height="7" as="geometry">
            <mxRectangle width="6" height="7" as="alternateBounds" />
          </mxGeometry>
        </mxCell>
        <mxCell id="TRP02oGcFqluon3LZnlB-204" value="" style="shape=partialRectangle;html=1;whiteSpace=wrap;connectable=0;strokeColor=inherit;overflow=hidden;fillColor=none;top=0;left=0;bottom=0;right=0;pointerEvents=1;" parent="TRP02oGcFqluon3LZnlB-201" vertex="1">
          <mxGeometry x="13" width="7" height="7" as="geometry">
            <mxRectangle width="7" height="7" as="alternateBounds" />
          </mxGeometry>
        </mxCell>
        <mxCell id="TRP02oGcFqluon3LZnlB-214" value="" style="shape=table;startSize=0;container=1;collapsible=0;childLayout=tableLayout;" parent="1" vertex="1">
          <mxGeometry x="50.069999999999986" y="181" width="20" height="20" as="geometry" />
        </mxCell>
        <mxCell id="TRP02oGcFqluon3LZnlB-215" value="" style="shape=tableRow;horizontal=0;startSize=0;swimlaneHead=0;swimlaneBody=0;strokeColor=inherit;top=0;left=0;bottom=0;right=0;collapsible=0;dropTarget=0;fillColor=none;points=[[0,0.5],[1,0.5]];portConstraint=eastwest;" parent="TRP02oGcFqluon3LZnlB-214" vertex="1">
          <mxGeometry width="20" height="7" as="geometry" />
        </mxCell>
        <mxCell id="TRP02oGcFqluon3LZnlB-216" value="" style="shape=partialRectangle;html=1;whiteSpace=wrap;connectable=0;strokeColor=inherit;overflow=hidden;fillColor=none;top=0;left=0;bottom=0;right=0;pointerEvents=1;" parent="TRP02oGcFqluon3LZnlB-215" vertex="1">
          <mxGeometry width="7" height="7" as="geometry">
            <mxRectangle width="7" height="7" as="alternateBounds" />
          </mxGeometry>
        </mxCell>
        <mxCell id="TRP02oGcFqluon3LZnlB-217" value="" style="shape=partialRectangle;html=1;whiteSpace=wrap;connectable=0;strokeColor=inherit;overflow=hidden;fillColor=none;top=0;left=0;bottom=0;right=0;pointerEvents=1;" parent="TRP02oGcFqluon3LZnlB-215" vertex="1">
          <mxGeometry x="7" width="6" height="7" as="geometry">
            <mxRectangle width="6" height="7" as="alternateBounds" />
          </mxGeometry>
        </mxCell>
        <mxCell id="TRP02oGcFqluon3LZnlB-218" value="" style="shape=partialRectangle;html=1;whiteSpace=wrap;connectable=0;strokeColor=inherit;overflow=hidden;fillColor=none;top=0;left=0;bottom=0;right=0;pointerEvents=1;" parent="TRP02oGcFqluon3LZnlB-215" vertex="1">
          <mxGeometry x="13" width="7" height="7" as="geometry">
            <mxRectangle width="7" height="7" as="alternateBounds" />
          </mxGeometry>
        </mxCell>
        <mxCell id="TRP02oGcFqluon3LZnlB-219" value="" style="shape=tableRow;horizontal=0;startSize=0;swimlaneHead=0;swimlaneBody=0;strokeColor=inherit;top=0;left=0;bottom=0;right=0;collapsible=0;dropTarget=0;fillColor=none;points=[[0,0.5],[1,0.5]];portConstraint=eastwest;" parent="TRP02oGcFqluon3LZnlB-214" vertex="1">
          <mxGeometry y="7" width="20" height="6" as="geometry" />
        </mxCell>
        <mxCell id="TRP02oGcFqluon3LZnlB-220" value="" style="shape=partialRectangle;html=1;whiteSpace=wrap;connectable=0;strokeColor=inherit;overflow=hidden;fillColor=none;top=0;left=0;bottom=0;right=0;pointerEvents=1;" parent="TRP02oGcFqluon3LZnlB-219" vertex="1">
          <mxGeometry width="7" height="6" as="geometry">
            <mxRectangle width="7" height="6" as="alternateBounds" />
          </mxGeometry>
        </mxCell>
        <mxCell id="TRP02oGcFqluon3LZnlB-221" value="" style="shape=partialRectangle;html=1;whiteSpace=wrap;connectable=0;strokeColor=inherit;overflow=hidden;fillColor=none;top=0;left=0;bottom=0;right=0;pointerEvents=1;" parent="TRP02oGcFqluon3LZnlB-219" vertex="1">
          <mxGeometry x="7" width="6" height="6" as="geometry">
            <mxRectangle width="6" height="6" as="alternateBounds" />
          </mxGeometry>
        </mxCell>
        <mxCell id="TRP02oGcFqluon3LZnlB-222" value="" style="shape=partialRectangle;html=1;whiteSpace=wrap;connectable=0;strokeColor=inherit;overflow=hidden;fillColor=none;top=0;left=0;bottom=0;right=0;pointerEvents=1;" parent="TRP02oGcFqluon3LZnlB-219" vertex="1">
          <mxGeometry x="13" width="7" height="6" as="geometry">
            <mxRectangle width="7" height="6" as="alternateBounds" />
          </mxGeometry>
        </mxCell>
        <mxCell id="TRP02oGcFqluon3LZnlB-223" value="" style="shape=tableRow;horizontal=0;startSize=0;swimlaneHead=0;swimlaneBody=0;strokeColor=inherit;top=0;left=0;bottom=0;right=0;collapsible=0;dropTarget=0;fillColor=none;points=[[0,0.5],[1,0.5]];portConstraint=eastwest;" parent="TRP02oGcFqluon3LZnlB-214" vertex="1">
          <mxGeometry y="13" width="20" height="7" as="geometry" />
        </mxCell>
        <mxCell id="TRP02oGcFqluon3LZnlB-224" value="" style="shape=partialRectangle;html=1;whiteSpace=wrap;connectable=0;strokeColor=inherit;overflow=hidden;fillColor=none;top=0;left=0;bottom=0;right=0;pointerEvents=1;" parent="TRP02oGcFqluon3LZnlB-223" vertex="1">
          <mxGeometry width="7" height="7" as="geometry">
            <mxRectangle width="7" height="7" as="alternateBounds" />
          </mxGeometry>
        </mxCell>
        <mxCell id="TRP02oGcFqluon3LZnlB-225" value="" style="shape=partialRectangle;html=1;whiteSpace=wrap;connectable=0;strokeColor=inherit;overflow=hidden;fillColor=none;top=0;left=0;bottom=0;right=0;pointerEvents=1;" parent="TRP02oGcFqluon3LZnlB-223" vertex="1">
          <mxGeometry x="7" width="6" height="7" as="geometry">
            <mxRectangle width="6" height="7" as="alternateBounds" />
          </mxGeometry>
        </mxCell>
        <mxCell id="TRP02oGcFqluon3LZnlB-226" value="" style="shape=partialRectangle;html=1;whiteSpace=wrap;connectable=0;strokeColor=inherit;overflow=hidden;fillColor=none;top=0;left=0;bottom=0;right=0;pointerEvents=1;" parent="TRP02oGcFqluon3LZnlB-223" vertex="1">
          <mxGeometry x="13" width="7" height="7" as="geometry">
            <mxRectangle width="7" height="7" as="alternateBounds" />
          </mxGeometry>
        </mxCell>
        <mxCell id="TRP02oGcFqluon3LZnlB-251" value="&lt;font size=&quot;1&quot; face=&quot;Times New Roman&quot; style=&quot;&quot;&gt;&lt;b style=&quot;font-size: 12px;&quot;&gt;RoPE&lt;/b&gt;&lt;/font&gt;" style="text;html=1;align=center;verticalAlign=middle;resizable=0;points=[];autosize=1;strokeColor=none;fillColor=none;" parent="1" vertex="1">
          <mxGeometry x="1.9999999999999787" y="209" width="50" height="30" as="geometry" />
        </mxCell>
        <mxCell id="TRP02oGcFqluon3LZnlB-252" value="" style="rounded=1;whiteSpace=wrap;html=1;fillColor=#eeeeee;strokeColor=#36393d;opacity=20;" parent="1" vertex="1">
          <mxGeometry x="-28.750000000000007" y="239" width="180" height="31" as="geometry" />
        </mxCell>
        <mxCell id="TRP02oGcFqluon3LZnlB-253" value="" style="rounded=1;whiteSpace=wrap;html=1;fillColor=#eeeeee;strokeColor=#36393d;opacity=70;" parent="1" vertex="1">
          <mxGeometry x="-23.750000000000007" y="243" width="180" height="32" as="geometry" />
        </mxCell>
        <mxCell id="TRP02oGcFqluon3LZnlB-254" value="" style="rounded=1;whiteSpace=wrap;html=1;fillColor=#eeeeee;strokeColor=#36393d;" parent="1" vertex="1">
          <mxGeometry x="-20.250000000000007" y="248" width="180" height="31" as="geometry" />
        </mxCell>
        <mxCell id="TRP02oGcFqluon3LZnlB-255" value="" style="shape=table;startSize=0;container=1;collapsible=0;childLayout=tableLayout;" parent="1" vertex="1">
          <mxGeometry x="-10.250000000000007" y="254" width="20" height="20" as="geometry" />
        </mxCell>
        <mxCell id="TRP02oGcFqluon3LZnlB-256" value="" style="shape=tableRow;horizontal=0;startSize=0;swimlaneHead=0;swimlaneBody=0;strokeColor=inherit;top=0;left=0;bottom=0;right=0;collapsible=0;dropTarget=0;fillColor=none;points=[[0,0.5],[1,0.5]];portConstraint=eastwest;" parent="TRP02oGcFqluon3LZnlB-255" vertex="1">
          <mxGeometry width="20" height="7" as="geometry" />
        </mxCell>
        <mxCell id="TRP02oGcFqluon3LZnlB-257" value="" style="shape=partialRectangle;html=1;whiteSpace=wrap;connectable=0;strokeColor=inherit;overflow=hidden;fillColor=none;top=0;left=0;bottom=0;right=0;pointerEvents=1;" parent="TRP02oGcFqluon3LZnlB-256" vertex="1">
          <mxGeometry width="7" height="7" as="geometry">
            <mxRectangle width="7" height="7" as="alternateBounds" />
          </mxGeometry>
        </mxCell>
        <mxCell id="TRP02oGcFqluon3LZnlB-258" value="" style="shape=partialRectangle;html=1;whiteSpace=wrap;connectable=0;strokeColor=inherit;overflow=hidden;fillColor=none;top=0;left=0;bottom=0;right=0;pointerEvents=1;" parent="TRP02oGcFqluon3LZnlB-256" vertex="1">
          <mxGeometry x="7" width="6" height="7" as="geometry">
            <mxRectangle width="6" height="7" as="alternateBounds" />
          </mxGeometry>
        </mxCell>
        <mxCell id="TRP02oGcFqluon3LZnlB-259" value="" style="shape=partialRectangle;html=1;whiteSpace=wrap;connectable=0;strokeColor=inherit;overflow=hidden;fillColor=none;top=0;left=0;bottom=0;right=0;pointerEvents=1;" parent="TRP02oGcFqluon3LZnlB-256" vertex="1">
          <mxGeometry x="13" width="7" height="7" as="geometry">
            <mxRectangle width="7" height="7" as="alternateBounds" />
          </mxGeometry>
        </mxCell>
        <mxCell id="TRP02oGcFqluon3LZnlB-260" value="" style="shape=tableRow;horizontal=0;startSize=0;swimlaneHead=0;swimlaneBody=0;strokeColor=inherit;top=0;left=0;bottom=0;right=0;collapsible=0;dropTarget=0;fillColor=none;points=[[0,0.5],[1,0.5]];portConstraint=eastwest;" parent="TRP02oGcFqluon3LZnlB-255" vertex="1">
          <mxGeometry y="7" width="20" height="6" as="geometry" />
        </mxCell>
        <mxCell id="TRP02oGcFqluon3LZnlB-261" value="" style="shape=partialRectangle;html=1;whiteSpace=wrap;connectable=0;strokeColor=inherit;overflow=hidden;fillColor=none;top=0;left=0;bottom=0;right=0;pointerEvents=1;" parent="TRP02oGcFqluon3LZnlB-260" vertex="1">
          <mxGeometry width="7" height="6" as="geometry">
            <mxRectangle width="7" height="6" as="alternateBounds" />
          </mxGeometry>
        </mxCell>
        <mxCell id="TRP02oGcFqluon3LZnlB-262" value="" style="shape=partialRectangle;html=1;whiteSpace=wrap;connectable=0;strokeColor=inherit;overflow=hidden;fillColor=none;top=0;left=0;bottom=0;right=0;pointerEvents=1;" parent="TRP02oGcFqluon3LZnlB-260" vertex="1">
          <mxGeometry x="7" width="6" height="6" as="geometry">
            <mxRectangle width="6" height="6" as="alternateBounds" />
          </mxGeometry>
        </mxCell>
        <mxCell id="TRP02oGcFqluon3LZnlB-263" value="" style="shape=partialRectangle;html=1;whiteSpace=wrap;connectable=0;strokeColor=inherit;overflow=hidden;fillColor=none;top=0;left=0;bottom=0;right=0;pointerEvents=1;" parent="TRP02oGcFqluon3LZnlB-260" vertex="1">
          <mxGeometry x="13" width="7" height="6" as="geometry">
            <mxRectangle width="7" height="6" as="alternateBounds" />
          </mxGeometry>
        </mxCell>
        <mxCell id="TRP02oGcFqluon3LZnlB-264" value="" style="shape=tableRow;horizontal=0;startSize=0;swimlaneHead=0;swimlaneBody=0;strokeColor=inherit;top=0;left=0;bottom=0;right=0;collapsible=0;dropTarget=0;fillColor=none;points=[[0,0.5],[1,0.5]];portConstraint=eastwest;" parent="TRP02oGcFqluon3LZnlB-255" vertex="1">
          <mxGeometry y="13" width="20" height="7" as="geometry" />
        </mxCell>
        <mxCell id="TRP02oGcFqluon3LZnlB-265" value="" style="shape=partialRectangle;html=1;whiteSpace=wrap;connectable=0;strokeColor=inherit;overflow=hidden;fillColor=none;top=0;left=0;bottom=0;right=0;pointerEvents=1;" parent="TRP02oGcFqluon3LZnlB-264" vertex="1">
          <mxGeometry width="7" height="7" as="geometry">
            <mxRectangle width="7" height="7" as="alternateBounds" />
          </mxGeometry>
        </mxCell>
        <mxCell id="TRP02oGcFqluon3LZnlB-266" value="" style="shape=partialRectangle;html=1;whiteSpace=wrap;connectable=0;strokeColor=inherit;overflow=hidden;fillColor=none;top=0;left=0;bottom=0;right=0;pointerEvents=1;" parent="TRP02oGcFqluon3LZnlB-264" vertex="1">
          <mxGeometry x="7" width="6" height="7" as="geometry">
            <mxRectangle width="6" height="7" as="alternateBounds" />
          </mxGeometry>
        </mxCell>
        <mxCell id="TRP02oGcFqluon3LZnlB-267" value="" style="shape=partialRectangle;html=1;whiteSpace=wrap;connectable=0;strokeColor=inherit;overflow=hidden;fillColor=none;top=0;left=0;bottom=0;right=0;pointerEvents=1;" parent="TRP02oGcFqluon3LZnlB-264" vertex="1">
          <mxGeometry x="13" width="7" height="7" as="geometry">
            <mxRectangle width="7" height="7" as="alternateBounds" />
          </mxGeometry>
        </mxCell>
        <mxCell id="TRP02oGcFqluon3LZnlB-268" value="" style="shape=table;startSize=0;container=1;collapsible=0;childLayout=tableLayout;" parent="1" vertex="1">
          <mxGeometry x="49.749999999999986" y="254" width="20" height="20" as="geometry" />
        </mxCell>
        <mxCell id="TRP02oGcFqluon3LZnlB-269" value="" style="shape=tableRow;horizontal=0;startSize=0;swimlaneHead=0;swimlaneBody=0;strokeColor=inherit;top=0;left=0;bottom=0;right=0;collapsible=0;dropTarget=0;fillColor=none;points=[[0,0.5],[1,0.5]];portConstraint=eastwest;" parent="TRP02oGcFqluon3LZnlB-268" vertex="1">
          <mxGeometry width="20" height="7" as="geometry" />
        </mxCell>
        <mxCell id="TRP02oGcFqluon3LZnlB-270" value="" style="shape=partialRectangle;html=1;whiteSpace=wrap;connectable=0;strokeColor=inherit;overflow=hidden;fillColor=none;top=0;left=0;bottom=0;right=0;pointerEvents=1;" parent="TRP02oGcFqluon3LZnlB-269" vertex="1">
          <mxGeometry width="7" height="7" as="geometry">
            <mxRectangle width="7" height="7" as="alternateBounds" />
          </mxGeometry>
        </mxCell>
        <mxCell id="TRP02oGcFqluon3LZnlB-271" value="" style="shape=partialRectangle;html=1;whiteSpace=wrap;connectable=0;strokeColor=inherit;overflow=hidden;fillColor=none;top=0;left=0;bottom=0;right=0;pointerEvents=1;" parent="TRP02oGcFqluon3LZnlB-269" vertex="1">
          <mxGeometry x="7" width="6" height="7" as="geometry">
            <mxRectangle width="6" height="7" as="alternateBounds" />
          </mxGeometry>
        </mxCell>
        <mxCell id="TRP02oGcFqluon3LZnlB-272" value="" style="shape=partialRectangle;html=1;whiteSpace=wrap;connectable=0;strokeColor=inherit;overflow=hidden;fillColor=none;top=0;left=0;bottom=0;right=0;pointerEvents=1;" parent="TRP02oGcFqluon3LZnlB-269" vertex="1">
          <mxGeometry x="13" width="7" height="7" as="geometry">
            <mxRectangle width="7" height="7" as="alternateBounds" />
          </mxGeometry>
        </mxCell>
        <mxCell id="TRP02oGcFqluon3LZnlB-273" value="" style="shape=tableRow;horizontal=0;startSize=0;swimlaneHead=0;swimlaneBody=0;strokeColor=inherit;top=0;left=0;bottom=0;right=0;collapsible=0;dropTarget=0;fillColor=none;points=[[0,0.5],[1,0.5]];portConstraint=eastwest;" parent="TRP02oGcFqluon3LZnlB-268" vertex="1">
          <mxGeometry y="7" width="20" height="6" as="geometry" />
        </mxCell>
        <mxCell id="TRP02oGcFqluon3LZnlB-274" value="" style="shape=partialRectangle;html=1;whiteSpace=wrap;connectable=0;strokeColor=inherit;overflow=hidden;fillColor=none;top=0;left=0;bottom=0;right=0;pointerEvents=1;" parent="TRP02oGcFqluon3LZnlB-273" vertex="1">
          <mxGeometry width="7" height="6" as="geometry">
            <mxRectangle width="7" height="6" as="alternateBounds" />
          </mxGeometry>
        </mxCell>
        <mxCell id="TRP02oGcFqluon3LZnlB-275" value="" style="shape=partialRectangle;html=1;whiteSpace=wrap;connectable=0;strokeColor=inherit;overflow=hidden;fillColor=none;top=0;left=0;bottom=0;right=0;pointerEvents=1;" parent="TRP02oGcFqluon3LZnlB-273" vertex="1">
          <mxGeometry x="7" width="6" height="6" as="geometry">
            <mxRectangle width="6" height="6" as="alternateBounds" />
          </mxGeometry>
        </mxCell>
        <mxCell id="TRP02oGcFqluon3LZnlB-276" value="" style="shape=partialRectangle;html=1;whiteSpace=wrap;connectable=0;strokeColor=inherit;overflow=hidden;fillColor=none;top=0;left=0;bottom=0;right=0;pointerEvents=1;" parent="TRP02oGcFqluon3LZnlB-273" vertex="1">
          <mxGeometry x="13" width="7" height="6" as="geometry">
            <mxRectangle width="7" height="6" as="alternateBounds" />
          </mxGeometry>
        </mxCell>
        <mxCell id="TRP02oGcFqluon3LZnlB-277" value="" style="shape=tableRow;horizontal=0;startSize=0;swimlaneHead=0;swimlaneBody=0;strokeColor=inherit;top=0;left=0;bottom=0;right=0;collapsible=0;dropTarget=0;fillColor=none;points=[[0,0.5],[1,0.5]];portConstraint=eastwest;" parent="TRP02oGcFqluon3LZnlB-268" vertex="1">
          <mxGeometry y="13" width="20" height="7" as="geometry" />
        </mxCell>
        <mxCell id="TRP02oGcFqluon3LZnlB-278" value="" style="shape=partialRectangle;html=1;whiteSpace=wrap;connectable=0;strokeColor=inherit;overflow=hidden;fillColor=none;top=0;left=0;bottom=0;right=0;pointerEvents=1;" parent="TRP02oGcFqluon3LZnlB-277" vertex="1">
          <mxGeometry width="7" height="7" as="geometry">
            <mxRectangle width="7" height="7" as="alternateBounds" />
          </mxGeometry>
        </mxCell>
        <mxCell id="TRP02oGcFqluon3LZnlB-279" value="" style="shape=partialRectangle;html=1;whiteSpace=wrap;connectable=0;strokeColor=inherit;overflow=hidden;fillColor=none;top=0;left=0;bottom=0;right=0;pointerEvents=1;" parent="TRP02oGcFqluon3LZnlB-277" vertex="1">
          <mxGeometry x="7" width="6" height="7" as="geometry">
            <mxRectangle width="6" height="7" as="alternateBounds" />
          </mxGeometry>
        </mxCell>
        <mxCell id="TRP02oGcFqluon3LZnlB-280" value="" style="shape=partialRectangle;html=1;whiteSpace=wrap;connectable=0;strokeColor=inherit;overflow=hidden;fillColor=none;top=0;left=0;bottom=0;right=0;pointerEvents=1;" parent="TRP02oGcFqluon3LZnlB-277" vertex="1">
          <mxGeometry x="13" width="7" height="7" as="geometry">
            <mxRectangle width="7" height="7" as="alternateBounds" />
          </mxGeometry>
        </mxCell>
        <mxCell id="TRP02oGcFqluon3LZnlB-281" value="" style="shape=table;startSize=0;container=1;collapsible=0;childLayout=tableLayout;" parent="1" vertex="1">
          <mxGeometry x="118" y="253.5" width="20" height="20" as="geometry" />
        </mxCell>
        <mxCell id="TRP02oGcFqluon3LZnlB-282" value="" style="shape=tableRow;horizontal=0;startSize=0;swimlaneHead=0;swimlaneBody=0;strokeColor=inherit;top=0;left=0;bottom=0;right=0;collapsible=0;dropTarget=0;fillColor=none;points=[[0,0.5],[1,0.5]];portConstraint=eastwest;" parent="TRP02oGcFqluon3LZnlB-281" vertex="1">
          <mxGeometry width="20" height="7" as="geometry" />
        </mxCell>
        <mxCell id="TRP02oGcFqluon3LZnlB-283" value="" style="shape=partialRectangle;html=1;whiteSpace=wrap;connectable=0;strokeColor=inherit;overflow=hidden;fillColor=none;top=0;left=0;bottom=0;right=0;pointerEvents=1;" parent="TRP02oGcFqluon3LZnlB-282" vertex="1">
          <mxGeometry width="7" height="7" as="geometry">
            <mxRectangle width="7" height="7" as="alternateBounds" />
          </mxGeometry>
        </mxCell>
        <mxCell id="TRP02oGcFqluon3LZnlB-284" value="" style="shape=partialRectangle;html=1;whiteSpace=wrap;connectable=0;strokeColor=inherit;overflow=hidden;fillColor=none;top=0;left=0;bottom=0;right=0;pointerEvents=1;" parent="TRP02oGcFqluon3LZnlB-282" vertex="1">
          <mxGeometry x="7" width="6" height="7" as="geometry">
            <mxRectangle width="6" height="7" as="alternateBounds" />
          </mxGeometry>
        </mxCell>
        <mxCell id="TRP02oGcFqluon3LZnlB-285" value="" style="shape=partialRectangle;html=1;whiteSpace=wrap;connectable=0;strokeColor=inherit;overflow=hidden;fillColor=none;top=0;left=0;bottom=0;right=0;pointerEvents=1;" parent="TRP02oGcFqluon3LZnlB-282" vertex="1">
          <mxGeometry x="13" width="7" height="7" as="geometry">
            <mxRectangle width="7" height="7" as="alternateBounds" />
          </mxGeometry>
        </mxCell>
        <mxCell id="TRP02oGcFqluon3LZnlB-286" value="" style="shape=tableRow;horizontal=0;startSize=0;swimlaneHead=0;swimlaneBody=0;strokeColor=inherit;top=0;left=0;bottom=0;right=0;collapsible=0;dropTarget=0;fillColor=none;points=[[0,0.5],[1,0.5]];portConstraint=eastwest;" parent="TRP02oGcFqluon3LZnlB-281" vertex="1">
          <mxGeometry y="7" width="20" height="6" as="geometry" />
        </mxCell>
        <mxCell id="TRP02oGcFqluon3LZnlB-287" value="" style="shape=partialRectangle;html=1;whiteSpace=wrap;connectable=0;strokeColor=inherit;overflow=hidden;fillColor=none;top=0;left=0;bottom=0;right=0;pointerEvents=1;" parent="TRP02oGcFqluon3LZnlB-286" vertex="1">
          <mxGeometry width="7" height="6" as="geometry">
            <mxRectangle width="7" height="6" as="alternateBounds" />
          </mxGeometry>
        </mxCell>
        <mxCell id="TRP02oGcFqluon3LZnlB-288" value="" style="shape=partialRectangle;html=1;whiteSpace=wrap;connectable=0;strokeColor=inherit;overflow=hidden;fillColor=none;top=0;left=0;bottom=0;right=0;pointerEvents=1;" parent="TRP02oGcFqluon3LZnlB-286" vertex="1">
          <mxGeometry x="7" width="6" height="6" as="geometry">
            <mxRectangle width="6" height="6" as="alternateBounds" />
          </mxGeometry>
        </mxCell>
        <mxCell id="TRP02oGcFqluon3LZnlB-289" value="" style="shape=partialRectangle;html=1;whiteSpace=wrap;connectable=0;strokeColor=inherit;overflow=hidden;fillColor=none;top=0;left=0;bottom=0;right=0;pointerEvents=1;" parent="TRP02oGcFqluon3LZnlB-286" vertex="1">
          <mxGeometry x="13" width="7" height="6" as="geometry">
            <mxRectangle width="7" height="6" as="alternateBounds" />
          </mxGeometry>
        </mxCell>
        <mxCell id="TRP02oGcFqluon3LZnlB-290" value="" style="shape=tableRow;horizontal=0;startSize=0;swimlaneHead=0;swimlaneBody=0;strokeColor=inherit;top=0;left=0;bottom=0;right=0;collapsible=0;dropTarget=0;fillColor=none;points=[[0,0.5],[1,0.5]];portConstraint=eastwest;" parent="TRP02oGcFqluon3LZnlB-281" vertex="1">
          <mxGeometry y="13" width="20" height="7" as="geometry" />
        </mxCell>
        <mxCell id="TRP02oGcFqluon3LZnlB-291" value="" style="shape=partialRectangle;html=1;whiteSpace=wrap;connectable=0;strokeColor=inherit;overflow=hidden;fillColor=none;top=0;left=0;bottom=0;right=0;pointerEvents=1;" parent="TRP02oGcFqluon3LZnlB-290" vertex="1">
          <mxGeometry width="7" height="7" as="geometry">
            <mxRectangle width="7" height="7" as="alternateBounds" />
          </mxGeometry>
        </mxCell>
        <mxCell id="TRP02oGcFqluon3LZnlB-292" value="" style="shape=partialRectangle;html=1;whiteSpace=wrap;connectable=0;strokeColor=inherit;overflow=hidden;fillColor=none;top=0;left=0;bottom=0;right=0;pointerEvents=1;" parent="TRP02oGcFqluon3LZnlB-290" vertex="1">
          <mxGeometry x="7" width="6" height="7" as="geometry">
            <mxRectangle width="6" height="7" as="alternateBounds" />
          </mxGeometry>
        </mxCell>
        <mxCell id="TRP02oGcFqluon3LZnlB-293" value="" style="shape=partialRectangle;html=1;whiteSpace=wrap;connectable=0;strokeColor=inherit;overflow=hidden;fillColor=none;top=0;left=0;bottom=0;right=0;pointerEvents=1;" parent="TRP02oGcFqluon3LZnlB-290" vertex="1">
          <mxGeometry x="13" width="7" height="7" as="geometry">
            <mxRectangle width="7" height="7" as="alternateBounds" />
          </mxGeometry>
        </mxCell>
        <mxCell id="TRP02oGcFqluon3LZnlB-294" value="&lt;span style=&quot;font-size: 10px;&quot;&gt;$$Q_i$$&lt;/span&gt;" style="text;html=1;align=center;verticalAlign=middle;resizable=0;points=[];autosize=1;strokeColor=none;fillColor=none;" parent="1" vertex="1">
          <mxGeometry x="-9.750000000000007" y="250.5" width="56" height="26" as="geometry" />
        </mxCell>
        <mxCell id="TRP02oGcFqluon3LZnlB-295" value="$$K_i$$" style="text;html=1;align=center;verticalAlign=middle;resizable=0;points=[];autosize=1;strokeColor=none;fillColor=none;" parent="1" vertex="1">
          <mxGeometry x="50.249999999999986" y="251" width="62" height="26" as="geometry" />
        </mxCell>
        <mxCell id="TRP02oGcFqluon3LZnlB-356" style="edgeStyle=orthogonalEdgeStyle;rounded=0;orthogonalLoop=1;jettySize=auto;html=1;exitX=0.5;exitY=0;exitDx=0;exitDy=0;entryX=0.164;entryY=0.068;entryDx=0;entryDy=0;entryPerimeter=0;endArrow=open;endFill=0;" parent="1" edge="1">
          <mxGeometry relative="1" as="geometry">
            <mxPoint x="56.03600000000005" y="75.76799999999992" as="targetPoint" />
            <mxPoint x="55.499999999999986" y="115" as="sourcePoint" />
          </mxGeometry>
        </mxCell>
        <mxCell id="TRP02oGcFqluon3LZnlB-350" value="&lt;div style=&quot;text-align: left;&quot;&gt;&lt;br&gt;&lt;/div&gt;" style="rounded=1;whiteSpace=wrap;html=1;fillColor=#F8DEDD;" parent="1" vertex="1">
          <mxGeometry x="-49" y="105" width="240.37" height="40" as="geometry" />
        </mxCell>
        <mxCell id="TRP02oGcFqluon3LZnlB-359" value="&lt;div style=&quot;text-align: left;&quot;&gt;&lt;br&gt;&lt;/div&gt;" style="rounded=1;whiteSpace=wrap;html=1;fillColor=#bac8d3;strokeColor=#23445d;opacity=70;" parent="1" vertex="1">
          <mxGeometry x="-45" y="39.5" width="201" height="36.5" as="geometry" />
        </mxCell>
        <mxCell id="TRP02oGcFqluon3LZnlB-361" value="" style="shape=table;startSize=0;container=1;collapsible=0;childLayout=tableLayout;" parent="1" vertex="1">
          <mxGeometry x="-38" y="47" width="20" height="20" as="geometry" />
        </mxCell>
        <mxCell id="TRP02oGcFqluon3LZnlB-362" value="" style="shape=tableRow;horizontal=0;startSize=0;swimlaneHead=0;swimlaneBody=0;strokeColor=inherit;top=0;left=0;bottom=0;right=0;collapsible=0;dropTarget=0;fillColor=none;points=[[0,0.5],[1,0.5]];portConstraint=eastwest;" parent="TRP02oGcFqluon3LZnlB-361" vertex="1">
          <mxGeometry width="20" height="7" as="geometry" />
        </mxCell>
        <mxCell id="TRP02oGcFqluon3LZnlB-363" value="" style="shape=partialRectangle;html=1;whiteSpace=wrap;connectable=0;strokeColor=inherit;overflow=hidden;fillColor=none;top=0;left=0;bottom=0;right=0;pointerEvents=1;" parent="TRP02oGcFqluon3LZnlB-362" vertex="1">
          <mxGeometry width="7" height="7" as="geometry">
            <mxRectangle width="7" height="7" as="alternateBounds" />
          </mxGeometry>
        </mxCell>
        <mxCell id="TRP02oGcFqluon3LZnlB-364" value="" style="shape=partialRectangle;html=1;whiteSpace=wrap;connectable=0;strokeColor=inherit;overflow=hidden;fillColor=none;top=0;left=0;bottom=0;right=0;pointerEvents=1;" parent="TRP02oGcFqluon3LZnlB-362" vertex="1">
          <mxGeometry x="7" width="6" height="7" as="geometry">
            <mxRectangle width="6" height="7" as="alternateBounds" />
          </mxGeometry>
        </mxCell>
        <mxCell id="TRP02oGcFqluon3LZnlB-365" value="" style="shape=partialRectangle;html=1;whiteSpace=wrap;connectable=0;strokeColor=inherit;overflow=hidden;fillColor=none;top=0;left=0;bottom=0;right=0;pointerEvents=1;" parent="TRP02oGcFqluon3LZnlB-362" vertex="1">
          <mxGeometry x="13" width="7" height="7" as="geometry">
            <mxRectangle width="7" height="7" as="alternateBounds" />
          </mxGeometry>
        </mxCell>
        <mxCell id="TRP02oGcFqluon3LZnlB-366" value="" style="shape=tableRow;horizontal=0;startSize=0;swimlaneHead=0;swimlaneBody=0;strokeColor=inherit;top=0;left=0;bottom=0;right=0;collapsible=0;dropTarget=0;fillColor=none;points=[[0,0.5],[1,0.5]];portConstraint=eastwest;" parent="TRP02oGcFqluon3LZnlB-361" vertex="1">
          <mxGeometry y="7" width="20" height="6" as="geometry" />
        </mxCell>
        <mxCell id="TRP02oGcFqluon3LZnlB-367" value="" style="shape=partialRectangle;html=1;whiteSpace=wrap;connectable=0;strokeColor=inherit;overflow=hidden;fillColor=none;top=0;left=0;bottom=0;right=0;pointerEvents=1;" parent="TRP02oGcFqluon3LZnlB-366" vertex="1">
          <mxGeometry width="7" height="6" as="geometry">
            <mxRectangle width="7" height="6" as="alternateBounds" />
          </mxGeometry>
        </mxCell>
        <mxCell id="TRP02oGcFqluon3LZnlB-368" value="" style="shape=partialRectangle;html=1;whiteSpace=wrap;connectable=0;strokeColor=inherit;overflow=hidden;fillColor=none;top=0;left=0;bottom=0;right=0;pointerEvents=1;" parent="TRP02oGcFqluon3LZnlB-366" vertex="1">
          <mxGeometry x="7" width="6" height="6" as="geometry">
            <mxRectangle width="6" height="6" as="alternateBounds" />
          </mxGeometry>
        </mxCell>
        <mxCell id="TRP02oGcFqluon3LZnlB-369" value="" style="shape=partialRectangle;html=1;whiteSpace=wrap;connectable=0;strokeColor=inherit;overflow=hidden;fillColor=none;top=0;left=0;bottom=0;right=0;pointerEvents=1;" parent="TRP02oGcFqluon3LZnlB-366" vertex="1">
          <mxGeometry x="13" width="7" height="6" as="geometry">
            <mxRectangle width="7" height="6" as="alternateBounds" />
          </mxGeometry>
        </mxCell>
        <mxCell id="TRP02oGcFqluon3LZnlB-370" value="" style="shape=tableRow;horizontal=0;startSize=0;swimlaneHead=0;swimlaneBody=0;strokeColor=inherit;top=0;left=0;bottom=0;right=0;collapsible=0;dropTarget=0;fillColor=none;points=[[0,0.5],[1,0.5]];portConstraint=eastwest;" parent="TRP02oGcFqluon3LZnlB-361" vertex="1">
          <mxGeometry y="13" width="20" height="7" as="geometry" />
        </mxCell>
        <mxCell id="TRP02oGcFqluon3LZnlB-371" value="" style="shape=partialRectangle;html=1;whiteSpace=wrap;connectable=0;strokeColor=inherit;overflow=hidden;fillColor=none;top=0;left=0;bottom=0;right=0;pointerEvents=1;" parent="TRP02oGcFqluon3LZnlB-370" vertex="1">
          <mxGeometry width="7" height="7" as="geometry">
            <mxRectangle width="7" height="7" as="alternateBounds" />
          </mxGeometry>
        </mxCell>
        <mxCell id="TRP02oGcFqluon3LZnlB-372" value="" style="shape=partialRectangle;html=1;whiteSpace=wrap;connectable=0;strokeColor=inherit;overflow=hidden;fillColor=none;top=0;left=0;bottom=0;right=0;pointerEvents=1;" parent="TRP02oGcFqluon3LZnlB-370" vertex="1">
          <mxGeometry x="7" width="6" height="7" as="geometry">
            <mxRectangle width="6" height="7" as="alternateBounds" />
          </mxGeometry>
        </mxCell>
        <mxCell id="TRP02oGcFqluon3LZnlB-373" value="" style="shape=partialRectangle;html=1;whiteSpace=wrap;connectable=0;strokeColor=inherit;overflow=hidden;fillColor=none;top=0;left=0;bottom=0;right=0;pointerEvents=1;" parent="TRP02oGcFqluon3LZnlB-370" vertex="1">
          <mxGeometry x="13" width="7" height="7" as="geometry">
            <mxRectangle width="7" height="7" as="alternateBounds" />
          </mxGeometry>
        </mxCell>
        <mxCell id="TRP02oGcFqluon3LZnlB-374" value="" style="shape=table;startSize=0;container=1;collapsible=0;childLayout=tableLayout;" parent="1" vertex="1">
          <mxGeometry x="4.249999999999993" y="47" width="20" height="20" as="geometry" />
        </mxCell>
        <mxCell id="TRP02oGcFqluon3LZnlB-375" value="" style="shape=tableRow;horizontal=0;startSize=0;swimlaneHead=0;swimlaneBody=0;strokeColor=inherit;top=0;left=0;bottom=0;right=0;collapsible=0;dropTarget=0;fillColor=none;points=[[0,0.5],[1,0.5]];portConstraint=eastwest;" parent="TRP02oGcFqluon3LZnlB-374" vertex="1">
          <mxGeometry width="20" height="7" as="geometry" />
        </mxCell>
        <mxCell id="TRP02oGcFqluon3LZnlB-376" value="" style="shape=partialRectangle;html=1;whiteSpace=wrap;connectable=0;strokeColor=inherit;overflow=hidden;fillColor=none;top=0;left=0;bottom=0;right=0;pointerEvents=1;" parent="TRP02oGcFqluon3LZnlB-375" vertex="1">
          <mxGeometry width="7" height="7" as="geometry">
            <mxRectangle width="7" height="7" as="alternateBounds" />
          </mxGeometry>
        </mxCell>
        <mxCell id="TRP02oGcFqluon3LZnlB-377" value="" style="shape=partialRectangle;html=1;whiteSpace=wrap;connectable=0;strokeColor=inherit;overflow=hidden;fillColor=none;top=0;left=0;bottom=0;right=0;pointerEvents=1;" parent="TRP02oGcFqluon3LZnlB-375" vertex="1">
          <mxGeometry x="7" width="6" height="7" as="geometry">
            <mxRectangle width="6" height="7" as="alternateBounds" />
          </mxGeometry>
        </mxCell>
        <mxCell id="TRP02oGcFqluon3LZnlB-378" value="" style="shape=partialRectangle;html=1;whiteSpace=wrap;connectable=0;strokeColor=inherit;overflow=hidden;fillColor=none;top=0;left=0;bottom=0;right=0;pointerEvents=1;" parent="TRP02oGcFqluon3LZnlB-375" vertex="1">
          <mxGeometry x="13" width="7" height="7" as="geometry">
            <mxRectangle width="7" height="7" as="alternateBounds" />
          </mxGeometry>
        </mxCell>
        <mxCell id="TRP02oGcFqluon3LZnlB-379" value="" style="shape=tableRow;horizontal=0;startSize=0;swimlaneHead=0;swimlaneBody=0;strokeColor=inherit;top=0;left=0;bottom=0;right=0;collapsible=0;dropTarget=0;fillColor=none;points=[[0,0.5],[1,0.5]];portConstraint=eastwest;" parent="TRP02oGcFqluon3LZnlB-374" vertex="1">
          <mxGeometry y="7" width="20" height="6" as="geometry" />
        </mxCell>
        <mxCell id="TRP02oGcFqluon3LZnlB-380" value="" style="shape=partialRectangle;html=1;whiteSpace=wrap;connectable=0;strokeColor=inherit;overflow=hidden;fillColor=none;top=0;left=0;bottom=0;right=0;pointerEvents=1;" parent="TRP02oGcFqluon3LZnlB-379" vertex="1">
          <mxGeometry width="7" height="6" as="geometry">
            <mxRectangle width="7" height="6" as="alternateBounds" />
          </mxGeometry>
        </mxCell>
        <mxCell id="TRP02oGcFqluon3LZnlB-381" value="" style="shape=partialRectangle;html=1;whiteSpace=wrap;connectable=0;strokeColor=inherit;overflow=hidden;fillColor=none;top=0;left=0;bottom=0;right=0;pointerEvents=1;" parent="TRP02oGcFqluon3LZnlB-379" vertex="1">
          <mxGeometry x="7" width="6" height="6" as="geometry">
            <mxRectangle width="6" height="6" as="alternateBounds" />
          </mxGeometry>
        </mxCell>
        <mxCell id="TRP02oGcFqluon3LZnlB-382" value="" style="shape=partialRectangle;html=1;whiteSpace=wrap;connectable=0;strokeColor=inherit;overflow=hidden;fillColor=none;top=0;left=0;bottom=0;right=0;pointerEvents=1;" parent="TRP02oGcFqluon3LZnlB-379" vertex="1">
          <mxGeometry x="13" width="7" height="6" as="geometry">
            <mxRectangle width="7" height="6" as="alternateBounds" />
          </mxGeometry>
        </mxCell>
        <mxCell id="TRP02oGcFqluon3LZnlB-383" value="" style="shape=tableRow;horizontal=0;startSize=0;swimlaneHead=0;swimlaneBody=0;strokeColor=inherit;top=0;left=0;bottom=0;right=0;collapsible=0;dropTarget=0;fillColor=none;points=[[0,0.5],[1,0.5]];portConstraint=eastwest;" parent="TRP02oGcFqluon3LZnlB-374" vertex="1">
          <mxGeometry y="13" width="20" height="7" as="geometry" />
        </mxCell>
        <mxCell id="TRP02oGcFqluon3LZnlB-384" value="" style="shape=partialRectangle;html=1;whiteSpace=wrap;connectable=0;strokeColor=inherit;overflow=hidden;fillColor=none;top=0;left=0;bottom=0;right=0;pointerEvents=1;" parent="TRP02oGcFqluon3LZnlB-383" vertex="1">
          <mxGeometry width="7" height="7" as="geometry">
            <mxRectangle width="7" height="7" as="alternateBounds" />
          </mxGeometry>
        </mxCell>
        <mxCell id="TRP02oGcFqluon3LZnlB-385" value="" style="shape=partialRectangle;html=1;whiteSpace=wrap;connectable=0;strokeColor=inherit;overflow=hidden;fillColor=none;top=0;left=0;bottom=0;right=0;pointerEvents=1;" parent="TRP02oGcFqluon3LZnlB-383" vertex="1">
          <mxGeometry x="7" width="6" height="7" as="geometry">
            <mxRectangle width="6" height="7" as="alternateBounds" />
          </mxGeometry>
        </mxCell>
        <mxCell id="TRP02oGcFqluon3LZnlB-386" value="" style="shape=partialRectangle;html=1;whiteSpace=wrap;connectable=0;strokeColor=inherit;overflow=hidden;fillColor=none;top=0;left=0;bottom=0;right=0;pointerEvents=1;" parent="TRP02oGcFqluon3LZnlB-383" vertex="1">
          <mxGeometry x="13" width="7" height="7" as="geometry">
            <mxRectangle width="7" height="7" as="alternateBounds" />
          </mxGeometry>
        </mxCell>
        <mxCell id="TRP02oGcFqluon3LZnlB-387" value="" style="shape=table;startSize=0;container=1;collapsible=0;childLayout=tableLayout;" parent="1" vertex="1">
          <mxGeometry x="47.999999999999986" y="47" width="20" height="20" as="geometry" />
        </mxCell>
        <mxCell id="TRP02oGcFqluon3LZnlB-388" value="" style="shape=tableRow;horizontal=0;startSize=0;swimlaneHead=0;swimlaneBody=0;strokeColor=inherit;top=0;left=0;bottom=0;right=0;collapsible=0;dropTarget=0;fillColor=none;points=[[0,0.5],[1,0.5]];portConstraint=eastwest;" parent="TRP02oGcFqluon3LZnlB-387" vertex="1">
          <mxGeometry width="20" height="7" as="geometry" />
        </mxCell>
        <mxCell id="TRP02oGcFqluon3LZnlB-389" value="" style="shape=partialRectangle;html=1;whiteSpace=wrap;connectable=0;strokeColor=inherit;overflow=hidden;fillColor=none;top=0;left=0;bottom=0;right=0;pointerEvents=1;" parent="TRP02oGcFqluon3LZnlB-388" vertex="1">
          <mxGeometry width="7" height="7" as="geometry">
            <mxRectangle width="7" height="7" as="alternateBounds" />
          </mxGeometry>
        </mxCell>
        <mxCell id="TRP02oGcFqluon3LZnlB-390" value="" style="shape=partialRectangle;html=1;whiteSpace=wrap;connectable=0;strokeColor=inherit;overflow=hidden;fillColor=none;top=0;left=0;bottom=0;right=0;pointerEvents=1;" parent="TRP02oGcFqluon3LZnlB-388" vertex="1">
          <mxGeometry x="7" width="6" height="7" as="geometry">
            <mxRectangle width="6" height="7" as="alternateBounds" />
          </mxGeometry>
        </mxCell>
        <mxCell id="TRP02oGcFqluon3LZnlB-391" value="" style="shape=partialRectangle;html=1;whiteSpace=wrap;connectable=0;strokeColor=inherit;overflow=hidden;fillColor=none;top=0;left=0;bottom=0;right=0;pointerEvents=1;" parent="TRP02oGcFqluon3LZnlB-388" vertex="1">
          <mxGeometry x="13" width="7" height="7" as="geometry">
            <mxRectangle width="7" height="7" as="alternateBounds" />
          </mxGeometry>
        </mxCell>
        <mxCell id="TRP02oGcFqluon3LZnlB-392" value="" style="shape=tableRow;horizontal=0;startSize=0;swimlaneHead=0;swimlaneBody=0;strokeColor=inherit;top=0;left=0;bottom=0;right=0;collapsible=0;dropTarget=0;fillColor=none;points=[[0,0.5],[1,0.5]];portConstraint=eastwest;" parent="TRP02oGcFqluon3LZnlB-387" vertex="1">
          <mxGeometry y="7" width="20" height="6" as="geometry" />
        </mxCell>
        <mxCell id="TRP02oGcFqluon3LZnlB-393" value="" style="shape=partialRectangle;html=1;whiteSpace=wrap;connectable=0;strokeColor=inherit;overflow=hidden;fillColor=none;top=0;left=0;bottom=0;right=0;pointerEvents=1;" parent="TRP02oGcFqluon3LZnlB-392" vertex="1">
          <mxGeometry width="7" height="6" as="geometry">
            <mxRectangle width="7" height="6" as="alternateBounds" />
          </mxGeometry>
        </mxCell>
        <mxCell id="TRP02oGcFqluon3LZnlB-394" value="" style="shape=partialRectangle;html=1;whiteSpace=wrap;connectable=0;strokeColor=inherit;overflow=hidden;fillColor=none;top=0;left=0;bottom=0;right=0;pointerEvents=1;" parent="TRP02oGcFqluon3LZnlB-392" vertex="1">
          <mxGeometry x="7" width="6" height="6" as="geometry">
            <mxRectangle width="6" height="6" as="alternateBounds" />
          </mxGeometry>
        </mxCell>
        <mxCell id="TRP02oGcFqluon3LZnlB-395" value="" style="shape=partialRectangle;html=1;whiteSpace=wrap;connectable=0;strokeColor=inherit;overflow=hidden;fillColor=none;top=0;left=0;bottom=0;right=0;pointerEvents=1;" parent="TRP02oGcFqluon3LZnlB-392" vertex="1">
          <mxGeometry x="13" width="7" height="6" as="geometry">
            <mxRectangle width="7" height="6" as="alternateBounds" />
          </mxGeometry>
        </mxCell>
        <mxCell id="TRP02oGcFqluon3LZnlB-396" value="" style="shape=tableRow;horizontal=0;startSize=0;swimlaneHead=0;swimlaneBody=0;strokeColor=inherit;top=0;left=0;bottom=0;right=0;collapsible=0;dropTarget=0;fillColor=none;points=[[0,0.5],[1,0.5]];portConstraint=eastwest;" parent="TRP02oGcFqluon3LZnlB-387" vertex="1">
          <mxGeometry y="13" width="20" height="7" as="geometry" />
        </mxCell>
        <mxCell id="TRP02oGcFqluon3LZnlB-397" value="" style="shape=partialRectangle;html=1;whiteSpace=wrap;connectable=0;strokeColor=inherit;overflow=hidden;fillColor=none;top=0;left=0;bottom=0;right=0;pointerEvents=1;" parent="TRP02oGcFqluon3LZnlB-396" vertex="1">
          <mxGeometry width="7" height="7" as="geometry">
            <mxRectangle width="7" height="7" as="alternateBounds" />
          </mxGeometry>
        </mxCell>
        <mxCell id="TRP02oGcFqluon3LZnlB-398" value="" style="shape=partialRectangle;html=1;whiteSpace=wrap;connectable=0;strokeColor=inherit;overflow=hidden;fillColor=none;top=0;left=0;bottom=0;right=0;pointerEvents=1;" parent="TRP02oGcFqluon3LZnlB-396" vertex="1">
          <mxGeometry x="7" width="6" height="7" as="geometry">
            <mxRectangle width="6" height="7" as="alternateBounds" />
          </mxGeometry>
        </mxCell>
        <mxCell id="TRP02oGcFqluon3LZnlB-399" value="" style="shape=partialRectangle;html=1;whiteSpace=wrap;connectable=0;strokeColor=inherit;overflow=hidden;fillColor=none;top=0;left=0;bottom=0;right=0;pointerEvents=1;" parent="TRP02oGcFqluon3LZnlB-396" vertex="1">
          <mxGeometry x="13" width="7" height="7" as="geometry">
            <mxRectangle width="7" height="7" as="alternateBounds" />
          </mxGeometry>
        </mxCell>
        <mxCell id="TRP02oGcFqluon3LZnlB-400" value="" style="shape=table;startSize=0;container=1;collapsible=0;childLayout=tableLayout;" parent="1" vertex="1">
          <mxGeometry x="103.25" y="47" width="20" height="20" as="geometry" />
        </mxCell>
        <mxCell id="TRP02oGcFqluon3LZnlB-401" value="" style="shape=tableRow;horizontal=0;startSize=0;swimlaneHead=0;swimlaneBody=0;strokeColor=inherit;top=0;left=0;bottom=0;right=0;collapsible=0;dropTarget=0;fillColor=none;points=[[0,0.5],[1,0.5]];portConstraint=eastwest;" parent="TRP02oGcFqluon3LZnlB-400" vertex="1">
          <mxGeometry width="20" height="7" as="geometry" />
        </mxCell>
        <mxCell id="TRP02oGcFqluon3LZnlB-402" value="" style="shape=partialRectangle;html=1;whiteSpace=wrap;connectable=0;strokeColor=inherit;overflow=hidden;fillColor=none;top=0;left=0;bottom=0;right=0;pointerEvents=1;" parent="TRP02oGcFqluon3LZnlB-401" vertex="1">
          <mxGeometry width="7" height="7" as="geometry">
            <mxRectangle width="7" height="7" as="alternateBounds" />
          </mxGeometry>
        </mxCell>
        <mxCell id="TRP02oGcFqluon3LZnlB-403" value="" style="shape=partialRectangle;html=1;whiteSpace=wrap;connectable=0;strokeColor=inherit;overflow=hidden;fillColor=none;top=0;left=0;bottom=0;right=0;pointerEvents=1;" parent="TRP02oGcFqluon3LZnlB-401" vertex="1">
          <mxGeometry x="7" width="6" height="7" as="geometry">
            <mxRectangle width="6" height="7" as="alternateBounds" />
          </mxGeometry>
        </mxCell>
        <mxCell id="TRP02oGcFqluon3LZnlB-404" value="" style="shape=partialRectangle;html=1;whiteSpace=wrap;connectable=0;strokeColor=inherit;overflow=hidden;fillColor=none;top=0;left=0;bottom=0;right=0;pointerEvents=1;" parent="TRP02oGcFqluon3LZnlB-401" vertex="1">
          <mxGeometry x="13" width="7" height="7" as="geometry">
            <mxRectangle width="7" height="7" as="alternateBounds" />
          </mxGeometry>
        </mxCell>
        <mxCell id="TRP02oGcFqluon3LZnlB-405" value="" style="shape=tableRow;horizontal=0;startSize=0;swimlaneHead=0;swimlaneBody=0;strokeColor=inherit;top=0;left=0;bottom=0;right=0;collapsible=0;dropTarget=0;fillColor=none;points=[[0,0.5],[1,0.5]];portConstraint=eastwest;" parent="TRP02oGcFqluon3LZnlB-400" vertex="1">
          <mxGeometry y="7" width="20" height="6" as="geometry" />
        </mxCell>
        <mxCell id="TRP02oGcFqluon3LZnlB-406" value="" style="shape=partialRectangle;html=1;whiteSpace=wrap;connectable=0;strokeColor=inherit;overflow=hidden;fillColor=none;top=0;left=0;bottom=0;right=0;pointerEvents=1;" parent="TRP02oGcFqluon3LZnlB-405" vertex="1">
          <mxGeometry width="7" height="6" as="geometry">
            <mxRectangle width="7" height="6" as="alternateBounds" />
          </mxGeometry>
        </mxCell>
        <mxCell id="TRP02oGcFqluon3LZnlB-407" value="" style="shape=partialRectangle;html=1;whiteSpace=wrap;connectable=0;strokeColor=inherit;overflow=hidden;fillColor=none;top=0;left=0;bottom=0;right=0;pointerEvents=1;" parent="TRP02oGcFqluon3LZnlB-405" vertex="1">
          <mxGeometry x="7" width="6" height="6" as="geometry">
            <mxRectangle width="6" height="6" as="alternateBounds" />
          </mxGeometry>
        </mxCell>
        <mxCell id="TRP02oGcFqluon3LZnlB-408" value="" style="shape=partialRectangle;html=1;whiteSpace=wrap;connectable=0;strokeColor=inherit;overflow=hidden;fillColor=none;top=0;left=0;bottom=0;right=0;pointerEvents=1;" parent="TRP02oGcFqluon3LZnlB-405" vertex="1">
          <mxGeometry x="13" width="7" height="6" as="geometry">
            <mxRectangle width="7" height="6" as="alternateBounds" />
          </mxGeometry>
        </mxCell>
        <mxCell id="TRP02oGcFqluon3LZnlB-409" value="" style="shape=tableRow;horizontal=0;startSize=0;swimlaneHead=0;swimlaneBody=0;strokeColor=inherit;top=0;left=0;bottom=0;right=0;collapsible=0;dropTarget=0;fillColor=none;points=[[0,0.5],[1,0.5]];portConstraint=eastwest;" parent="TRP02oGcFqluon3LZnlB-400" vertex="1">
          <mxGeometry y="13" width="20" height="7" as="geometry" />
        </mxCell>
        <mxCell id="TRP02oGcFqluon3LZnlB-410" value="" style="shape=partialRectangle;html=1;whiteSpace=wrap;connectable=0;strokeColor=inherit;overflow=hidden;fillColor=none;top=0;left=0;bottom=0;right=0;pointerEvents=1;" parent="TRP02oGcFqluon3LZnlB-409" vertex="1">
          <mxGeometry width="7" height="7" as="geometry">
            <mxRectangle width="7" height="7" as="alternateBounds" />
          </mxGeometry>
        </mxCell>
        <mxCell id="TRP02oGcFqluon3LZnlB-411" value="" style="shape=partialRectangle;html=1;whiteSpace=wrap;connectable=0;strokeColor=inherit;overflow=hidden;fillColor=none;top=0;left=0;bottom=0;right=0;pointerEvents=1;" parent="TRP02oGcFqluon3LZnlB-409" vertex="1">
          <mxGeometry x="7" width="6" height="7" as="geometry">
            <mxRectangle width="6" height="7" as="alternateBounds" />
          </mxGeometry>
        </mxCell>
        <mxCell id="TRP02oGcFqluon3LZnlB-412" value="" style="shape=partialRectangle;html=1;whiteSpace=wrap;connectable=0;strokeColor=inherit;overflow=hidden;fillColor=none;top=0;left=0;bottom=0;right=0;pointerEvents=1;" parent="TRP02oGcFqluon3LZnlB-409" vertex="1">
          <mxGeometry x="13" width="7" height="7" as="geometry">
            <mxRectangle width="7" height="7" as="alternateBounds" />
          </mxGeometry>
        </mxCell>
        <mxCell id="TRP02oGcFqluon3LZnlB-413" value="$$Z_0$$" style="text;html=1;align=center;verticalAlign=middle;resizable=0;points=[];autosize=1;strokeColor=none;fillColor=none;" parent="1" vertex="1">
          <mxGeometry x="-43.05" y="44.75" width="65" height="26" as="geometry" />
        </mxCell>
        <mxCell id="TRP02oGcFqluon3LZnlB-414" value="$$Z_1$$" style="text;html=1;align=center;verticalAlign=middle;resizable=0;points=[];autosize=1;strokeColor=none;fillColor=none;" parent="1" vertex="1">
          <mxGeometry x="-0.5000000000000213" y="44" width="65" height="26" as="geometry" />
        </mxCell>
        <mxCell id="TRP02oGcFqluon3LZnlB-416" value="$$Z_2$$" style="text;html=1;align=center;verticalAlign=middle;resizable=0;points=[];autosize=1;strokeColor=none;fillColor=none;" parent="1" vertex="1">
          <mxGeometry x="42.999999999999986" y="44" width="65" height="26" as="geometry" />
        </mxCell>
        <mxCell id="TRP02oGcFqluon3LZnlB-417" value="$$Z_{n_5-1}$$" style="text;html=1;align=center;verticalAlign=middle;resizable=0;points=[];autosize=1;strokeColor=none;fillColor=none;" parent="1" vertex="1">
          <mxGeometry x="90.5" y="44" width="97" height="26" as="geometry" />
        </mxCell>
        <mxCell id="TRP02oGcFqluon3LZnlB-436" value="$$W^0$$" style="text;html=1;align=center;verticalAlign=middle;resizable=0;points=[];autosize=1;strokeColor=none;fillColor=none;" parent="1" vertex="1">
          <mxGeometry x="70" y="7.5" width="68" height="26" as="geometry" />
        </mxCell>
        <mxCell id="TRP02oGcFqluon3LZnlB-437" value="" style="shape=table;startSize=0;container=1;collapsible=0;childLayout=tableLayout;" parent="1" vertex="1">
          <mxGeometry x="64.49999999999999" y="9" width="26" height="23" as="geometry" />
        </mxCell>
        <mxCell id="TRP02oGcFqluon3LZnlB-438" value="" style="shape=tableRow;horizontal=0;startSize=0;swimlaneHead=0;swimlaneBody=0;strokeColor=inherit;top=0;left=0;bottom=0;right=0;collapsible=0;dropTarget=0;fillColor=none;points=[[0,0.5],[1,0.5]];portConstraint=eastwest;" parent="TRP02oGcFqluon3LZnlB-437" vertex="1">
          <mxGeometry width="26" height="6" as="geometry" />
        </mxCell>
        <mxCell id="TRP02oGcFqluon3LZnlB-439" value="" style="shape=partialRectangle;html=1;whiteSpace=wrap;connectable=0;strokeColor=inherit;overflow=hidden;fillColor=none;top=0;left=0;bottom=0;right=0;pointerEvents=1;" parent="TRP02oGcFqluon3LZnlB-438" vertex="1">
          <mxGeometry width="10" height="6" as="geometry">
            <mxRectangle width="10" height="6" as="alternateBounds" />
          </mxGeometry>
        </mxCell>
        <mxCell id="TRP02oGcFqluon3LZnlB-440" value="" style="shape=partialRectangle;html=1;whiteSpace=wrap;connectable=0;strokeColor=inherit;overflow=hidden;fillColor=none;top=0;left=0;bottom=0;right=0;pointerEvents=1;" parent="TRP02oGcFqluon3LZnlB-438" vertex="1">
          <mxGeometry x="10" width="7" height="6" as="geometry">
            <mxRectangle width="7" height="6" as="alternateBounds" />
          </mxGeometry>
        </mxCell>
        <mxCell id="TRP02oGcFqluon3LZnlB-441" value="" style="shape=partialRectangle;html=1;whiteSpace=wrap;connectable=0;strokeColor=inherit;overflow=hidden;fillColor=none;top=0;left=0;bottom=0;right=0;pointerEvents=1;" parent="TRP02oGcFqluon3LZnlB-438" vertex="1">
          <mxGeometry x="17" width="9" height="6" as="geometry">
            <mxRectangle width="9" height="6" as="alternateBounds" />
          </mxGeometry>
        </mxCell>
        <mxCell id="TRP02oGcFqluon3LZnlB-442" value="" style="shape=tableRow;horizontal=0;startSize=0;swimlaneHead=0;swimlaneBody=0;strokeColor=inherit;top=0;left=0;bottom=0;right=0;collapsible=0;dropTarget=0;fillColor=none;points=[[0,0.5],[1,0.5]];portConstraint=eastwest;" parent="TRP02oGcFqluon3LZnlB-437" vertex="1">
          <mxGeometry y="6" width="26" height="6" as="geometry" />
        </mxCell>
        <mxCell id="TRP02oGcFqluon3LZnlB-443" value="" style="shape=partialRectangle;html=1;whiteSpace=wrap;connectable=0;strokeColor=inherit;overflow=hidden;fillColor=none;top=0;left=0;bottom=0;right=0;pointerEvents=1;" parent="TRP02oGcFqluon3LZnlB-442" vertex="1">
          <mxGeometry width="10" height="6" as="geometry">
            <mxRectangle width="10" height="6" as="alternateBounds" />
          </mxGeometry>
        </mxCell>
        <mxCell id="TRP02oGcFqluon3LZnlB-444" value="" style="shape=partialRectangle;html=1;whiteSpace=wrap;connectable=0;strokeColor=inherit;overflow=hidden;fillColor=none;top=0;left=0;bottom=0;right=0;pointerEvents=1;" parent="TRP02oGcFqluon3LZnlB-442" vertex="1">
          <mxGeometry x="10" width="7" height="6" as="geometry">
            <mxRectangle width="7" height="6" as="alternateBounds" />
          </mxGeometry>
        </mxCell>
        <mxCell id="TRP02oGcFqluon3LZnlB-445" value="" style="shape=partialRectangle;html=1;whiteSpace=wrap;connectable=0;strokeColor=inherit;overflow=hidden;fillColor=none;top=0;left=0;bottom=0;right=0;pointerEvents=1;" parent="TRP02oGcFqluon3LZnlB-442" vertex="1">
          <mxGeometry x="17" width="9" height="6" as="geometry">
            <mxRectangle width="9" height="6" as="alternateBounds" />
          </mxGeometry>
        </mxCell>
        <mxCell id="TRP02oGcFqluon3LZnlB-446" value="" style="shape=tableRow;horizontal=0;startSize=0;swimlaneHead=0;swimlaneBody=0;strokeColor=inherit;top=0;left=0;bottom=0;right=0;collapsible=0;dropTarget=0;fillColor=none;points=[[0,0.5],[1,0.5]];portConstraint=eastwest;" parent="TRP02oGcFqluon3LZnlB-437" vertex="1">
          <mxGeometry y="12" width="26" height="6" as="geometry" />
        </mxCell>
        <mxCell id="TRP02oGcFqluon3LZnlB-447" value="" style="shape=partialRectangle;html=1;whiteSpace=wrap;connectable=0;strokeColor=inherit;overflow=hidden;fillColor=none;top=0;left=0;bottom=0;right=0;pointerEvents=1;" parent="TRP02oGcFqluon3LZnlB-446" vertex="1">
          <mxGeometry width="10" height="6" as="geometry">
            <mxRectangle width="10" height="6" as="alternateBounds" />
          </mxGeometry>
        </mxCell>
        <mxCell id="TRP02oGcFqluon3LZnlB-448" value="" style="shape=partialRectangle;html=1;whiteSpace=wrap;connectable=0;strokeColor=inherit;overflow=hidden;fillColor=none;top=0;left=0;bottom=0;right=0;pointerEvents=1;" parent="TRP02oGcFqluon3LZnlB-446" vertex="1">
          <mxGeometry x="10" width="7" height="6" as="geometry">
            <mxRectangle width="7" height="6" as="alternateBounds" />
          </mxGeometry>
        </mxCell>
        <mxCell id="TRP02oGcFqluon3LZnlB-449" value="" style="shape=partialRectangle;html=1;whiteSpace=wrap;connectable=0;strokeColor=inherit;overflow=hidden;fillColor=none;top=0;left=0;bottom=0;right=0;pointerEvents=1;" parent="TRP02oGcFqluon3LZnlB-446" vertex="1">
          <mxGeometry x="17" width="9" height="6" as="geometry">
            <mxRectangle width="9" height="6" as="alternateBounds" />
          </mxGeometry>
        </mxCell>
        <mxCell id="TRP02oGcFqluon3LZnlB-450" value="" style="shape=tableRow;horizontal=0;startSize=0;swimlaneHead=0;swimlaneBody=0;strokeColor=inherit;top=0;left=0;bottom=0;right=0;collapsible=0;dropTarget=0;fillColor=none;points=[[0,0.5],[1,0.5]];portConstraint=eastwest;" parent="TRP02oGcFqluon3LZnlB-437" vertex="1">
          <mxGeometry y="18" width="26" height="5" as="geometry" />
        </mxCell>
        <mxCell id="TRP02oGcFqluon3LZnlB-451" value="" style="shape=partialRectangle;html=1;whiteSpace=wrap;connectable=0;strokeColor=inherit;overflow=hidden;fillColor=none;top=0;left=0;bottom=0;right=0;pointerEvents=1;" parent="TRP02oGcFqluon3LZnlB-450" vertex="1">
          <mxGeometry width="10" height="5" as="geometry">
            <mxRectangle width="10" height="5" as="alternateBounds" />
          </mxGeometry>
        </mxCell>
        <mxCell id="TRP02oGcFqluon3LZnlB-452" value="" style="shape=partialRectangle;html=1;whiteSpace=wrap;connectable=0;strokeColor=inherit;overflow=hidden;fillColor=none;top=0;left=0;bottom=0;right=0;pointerEvents=1;" parent="TRP02oGcFqluon3LZnlB-450" vertex="1">
          <mxGeometry x="10" width="7" height="5" as="geometry">
            <mxRectangle width="7" height="5" as="alternateBounds" />
          </mxGeometry>
        </mxCell>
        <mxCell id="TRP02oGcFqluon3LZnlB-453" value="" style="shape=partialRectangle;html=1;whiteSpace=wrap;connectable=0;strokeColor=inherit;overflow=hidden;fillColor=none;top=0;left=0;bottom=0;right=0;pointerEvents=1;" parent="TRP02oGcFqluon3LZnlB-450" vertex="1">
          <mxGeometry x="17" width="9" height="5" as="geometry">
            <mxRectangle width="9" height="5" as="alternateBounds" />
          </mxGeometry>
        </mxCell>
        <mxCell id="TRP02oGcFqluon3LZnlB-469" value="" style="shape=table;startSize=0;container=1;collapsible=0;childLayout=tableLayout;fillColor=#CCCCCC;strokeWidth=2;opacity=60;" parent="1" vertex="1">
          <mxGeometry x="-14.750000000000007" y="-20" width="140.12" height="24.5" as="geometry" />
        </mxCell>
        <mxCell id="TRP02oGcFqluon3LZnlB-470" value="" style="shape=tableRow;horizontal=0;startSize=0;swimlaneHead=0;swimlaneBody=0;strokeColor=default;top=0;left=0;bottom=0;right=0;collapsible=0;dropTarget=0;fillColor=none;points=[[0,0.5],[1,0.5]];portConstraint=eastwest;strokeWidth=1;" parent="TRP02oGcFqluon3LZnlB-469" vertex="1">
          <mxGeometry width="140.12" height="12" as="geometry" />
        </mxCell>
        <mxCell id="TRP02oGcFqluon3LZnlB-471" value="" style="shape=partialRectangle;html=1;whiteSpace=wrap;connectable=0;strokeColor=inherit;overflow=hidden;fillColor=none;top=0;left=0;bottom=0;right=0;pointerEvents=1;" parent="TRP02oGcFqluon3LZnlB-470" vertex="1">
          <mxGeometry width="17" height="12" as="geometry">
            <mxRectangle width="17" height="12" as="alternateBounds" />
          </mxGeometry>
        </mxCell>
        <mxCell id="TRP02oGcFqluon3LZnlB-472" value="" style="shape=partialRectangle;html=1;whiteSpace=wrap;connectable=0;strokeColor=inherit;overflow=hidden;fillColor=none;top=0;left=0;bottom=0;right=0;pointerEvents=1;" parent="TRP02oGcFqluon3LZnlB-470" vertex="1">
          <mxGeometry x="17" width="18" height="12" as="geometry">
            <mxRectangle width="18" height="12" as="alternateBounds" />
          </mxGeometry>
        </mxCell>
        <mxCell id="TRP02oGcFqluon3LZnlB-473" value="" style="shape=partialRectangle;html=1;whiteSpace=wrap;connectable=0;strokeColor=inherit;overflow=hidden;fillColor=none;top=0;left=0;bottom=0;right=0;pointerEvents=1;" parent="TRP02oGcFqluon3LZnlB-470" vertex="1">
          <mxGeometry x="35" width="17" height="12" as="geometry">
            <mxRectangle width="17" height="12" as="alternateBounds" />
          </mxGeometry>
        </mxCell>
        <mxCell id="TRP02oGcFqluon3LZnlB-474" value="" style="shape=partialRectangle;html=1;whiteSpace=wrap;connectable=0;strokeColor=inherit;overflow=hidden;fillColor=none;top=0;left=0;bottom=0;right=0;pointerEvents=1;" parent="TRP02oGcFqluon3LZnlB-470" vertex="1">
          <mxGeometry x="52" width="18" height="12" as="geometry">
            <mxRectangle width="18" height="12" as="alternateBounds" />
          </mxGeometry>
        </mxCell>
        <mxCell id="TRP02oGcFqluon3LZnlB-475" value="" style="shape=partialRectangle;html=1;whiteSpace=wrap;connectable=0;strokeColor=inherit;overflow=hidden;fillColor=none;top=0;left=0;bottom=0;right=0;pointerEvents=1;" parent="TRP02oGcFqluon3LZnlB-470" vertex="1">
          <mxGeometry x="70" width="16" height="12" as="geometry">
            <mxRectangle width="16" height="12" as="alternateBounds" />
          </mxGeometry>
        </mxCell>
        <mxCell id="TRP02oGcFqluon3LZnlB-476" value="" style="shape=partialRectangle;html=1;whiteSpace=wrap;connectable=0;strokeColor=inherit;overflow=hidden;fillColor=none;top=0;left=0;bottom=0;right=0;pointerEvents=1;" parent="TRP02oGcFqluon3LZnlB-470" vertex="1">
          <mxGeometry x="86" width="19" height="12" as="geometry">
            <mxRectangle width="19" height="12" as="alternateBounds" />
          </mxGeometry>
        </mxCell>
        <mxCell id="TRP02oGcFqluon3LZnlB-477" value="" style="shape=partialRectangle;html=1;whiteSpace=wrap;connectable=0;strokeColor=inherit;overflow=hidden;fillColor=none;top=0;left=0;bottom=0;right=0;pointerEvents=1;" parent="TRP02oGcFqluon3LZnlB-470" vertex="1">
          <mxGeometry x="105" width="17" height="12" as="geometry">
            <mxRectangle width="17" height="12" as="alternateBounds" />
          </mxGeometry>
        </mxCell>
        <mxCell id="TRP02oGcFqluon3LZnlB-478" value="" style="shape=partialRectangle;html=1;whiteSpace=wrap;connectable=0;strokeColor=inherit;overflow=hidden;fillColor=none;top=0;left=0;bottom=0;right=0;pointerEvents=1;" parent="TRP02oGcFqluon3LZnlB-470" vertex="1">
          <mxGeometry x="122" width="18" height="12" as="geometry">
            <mxRectangle width="18" height="12" as="alternateBounds" />
          </mxGeometry>
        </mxCell>
        <mxCell id="TRP02oGcFqluon3LZnlB-479" value="" style="shape=tableRow;horizontal=0;startSize=0;swimlaneHead=0;swimlaneBody=0;strokeColor=inherit;top=0;left=0;bottom=0;right=0;collapsible=0;dropTarget=0;fillColor=none;points=[[0,0.5],[1,0.5]];portConstraint=eastwest;" parent="TRP02oGcFqluon3LZnlB-469" vertex="1">
          <mxGeometry y="12" width="140.12" height="13" as="geometry" />
        </mxCell>
        <mxCell id="TRP02oGcFqluon3LZnlB-480" value="" style="shape=partialRectangle;html=1;whiteSpace=wrap;connectable=0;strokeColor=inherit;overflow=hidden;fillColor=none;top=0;left=0;bottom=0;right=0;pointerEvents=1;" parent="TRP02oGcFqluon3LZnlB-479" vertex="1">
          <mxGeometry width="17" height="13" as="geometry">
            <mxRectangle width="17" height="13" as="alternateBounds" />
          </mxGeometry>
        </mxCell>
        <mxCell id="TRP02oGcFqluon3LZnlB-481" value="" style="shape=partialRectangle;html=1;whiteSpace=wrap;connectable=0;strokeColor=inherit;overflow=hidden;fillColor=none;top=0;left=0;bottom=0;right=0;pointerEvents=1;" parent="TRP02oGcFqluon3LZnlB-479" vertex="1">
          <mxGeometry x="17" width="18" height="13" as="geometry">
            <mxRectangle width="18" height="13" as="alternateBounds" />
          </mxGeometry>
        </mxCell>
        <mxCell id="TRP02oGcFqluon3LZnlB-482" value="" style="shape=partialRectangle;html=1;whiteSpace=wrap;connectable=0;strokeColor=inherit;overflow=hidden;fillColor=none;top=0;left=0;bottom=0;right=0;pointerEvents=1;" parent="TRP02oGcFqluon3LZnlB-479" vertex="1">
          <mxGeometry x="35" width="17" height="13" as="geometry">
            <mxRectangle width="17" height="13" as="alternateBounds" />
          </mxGeometry>
        </mxCell>
        <mxCell id="TRP02oGcFqluon3LZnlB-483" value="" style="shape=partialRectangle;html=1;whiteSpace=wrap;connectable=0;strokeColor=inherit;overflow=hidden;fillColor=none;top=0;left=0;bottom=0;right=0;pointerEvents=1;" parent="TRP02oGcFqluon3LZnlB-479" vertex="1">
          <mxGeometry x="52" width="18" height="13" as="geometry">
            <mxRectangle width="18" height="13" as="alternateBounds" />
          </mxGeometry>
        </mxCell>
        <mxCell id="TRP02oGcFqluon3LZnlB-484" value="" style="shape=partialRectangle;html=1;whiteSpace=wrap;connectable=0;strokeColor=inherit;overflow=hidden;fillColor=none;top=0;left=0;bottom=0;right=0;pointerEvents=1;" parent="TRP02oGcFqluon3LZnlB-479" vertex="1">
          <mxGeometry x="70" width="16" height="13" as="geometry">
            <mxRectangle width="16" height="13" as="alternateBounds" />
          </mxGeometry>
        </mxCell>
        <mxCell id="TRP02oGcFqluon3LZnlB-485" value="" style="shape=partialRectangle;html=1;whiteSpace=wrap;connectable=0;strokeColor=inherit;overflow=hidden;fillColor=none;top=0;left=0;bottom=0;right=0;pointerEvents=1;" parent="TRP02oGcFqluon3LZnlB-479" vertex="1">
          <mxGeometry x="86" width="19" height="13" as="geometry">
            <mxRectangle width="19" height="13" as="alternateBounds" />
          </mxGeometry>
        </mxCell>
        <mxCell id="TRP02oGcFqluon3LZnlB-486" value="" style="shape=partialRectangle;html=1;whiteSpace=wrap;connectable=0;strokeColor=inherit;overflow=hidden;fillColor=none;top=0;left=0;bottom=0;right=0;pointerEvents=1;" parent="TRP02oGcFqluon3LZnlB-479" vertex="1">
          <mxGeometry x="105" width="17" height="13" as="geometry">
            <mxRectangle width="17" height="13" as="alternateBounds" />
          </mxGeometry>
        </mxCell>
        <mxCell id="TRP02oGcFqluon3LZnlB-487" value="" style="shape=partialRectangle;html=1;whiteSpace=wrap;connectable=0;strokeColor=inherit;overflow=hidden;fillColor=none;top=0;left=0;bottom=0;right=0;pointerEvents=1;" parent="TRP02oGcFqluon3LZnlB-479" vertex="1">
          <mxGeometry x="122" width="18" height="13" as="geometry">
            <mxRectangle width="18" height="13" as="alternateBounds" />
          </mxGeometry>
        </mxCell>
        <mxCell id="TRP02oGcFqluon3LZnlB-488" value="&lt;b&gt;M&lt;/b&gt;" style="text;html=1;align=center;verticalAlign=middle;resizable=0;points=[];autosize=1;strokeColor=none;fillColor=none;" parent="1" vertex="1">
          <mxGeometry x="127" y="-17" width="28" height="26" as="geometry" />
        </mxCell>
        <mxCell id="TRP02oGcFqluon3LZnlB-491" value="..." style="text;html=1;align=center;verticalAlign=middle;resizable=0;points=[];autosize=1;strokeColor=none;fillColor=none;" parent="1" vertex="1">
          <mxGeometry x="77.5" y="43" width="28" height="26" as="geometry" />
        </mxCell>
        <mxCell id="TRP02oGcFqluon3LZnlB-492" style="edgeStyle=orthogonalEdgeStyle;rounded=0;orthogonalLoop=1;jettySize=auto;html=1;entryX=0.5;entryY=1;entryDx=0;entryDy=0;endArrow=open;endFill=0;" parent="1" source="TRP02oGcFqluon3LZnlB-359" target="TRP02oGcFqluon3LZnlB-469" edge="1">
          <mxGeometry relative="1" as="geometry">
            <mxPoint x="58.25" y="8" as="targetPoint" />
          </mxGeometry>
        </mxCell>
        <mxCell id="TRP02oGcFqluon3LZnlB-528" value="" style="endArrow=open;html=1;rounded=0;endFill=0;exitX=0.837;exitY=0;exitDx=0;exitDy=0;exitPerimeter=0;entryX=0.779;entryY=0.995;entryDx=0;entryDy=0;entryPerimeter=0;" parent="1" source="TRP02oGcFqluon3LZnlB-584" target="TRP02oGcFqluon3LZnlB-254" edge="1">
          <mxGeometry width="50" height="50" relative="1" as="geometry">
            <mxPoint x="120" y="330" as="sourcePoint" />
            <mxPoint x="120" y="280" as="targetPoint" />
          </mxGeometry>
        </mxCell>
        <mxCell id="TRP02oGcFqluon3LZnlB-583" value="" style="shape=table;startSize=0;container=1;collapsible=0;childLayout=tableLayout;strokeWidth=2;fillColor=#CCCCCC;strokeColor=#000000;opacity=70;" parent="1" vertex="1">
          <mxGeometry x="-19.510000000000012" y="330" width="167" height="28" as="geometry" />
        </mxCell>
        <mxCell id="TRP02oGcFqluon3LZnlB-584" value="" style="shape=tableRow;horizontal=0;startSize=0;swimlaneHead=0;swimlaneBody=0;strokeColor=inherit;top=0;left=0;bottom=0;right=0;collapsible=0;dropTarget=0;fillColor=none;points=[[0,0.5],[1,0.5]];portConstraint=eastwest;" parent="TRP02oGcFqluon3LZnlB-583" vertex="1">
          <mxGeometry width="167" height="14" as="geometry" />
        </mxCell>
        <mxCell id="TRP02oGcFqluon3LZnlB-585" value="" style="shape=partialRectangle;html=1;whiteSpace=wrap;connectable=0;strokeColor=inherit;overflow=hidden;fillColor=none;top=0;left=0;bottom=0;right=0;pointerEvents=1;" parent="TRP02oGcFqluon3LZnlB-584" vertex="1">
          <mxGeometry width="14" height="14" as="geometry">
            <mxRectangle width="14" height="14" as="alternateBounds" />
          </mxGeometry>
        </mxCell>
        <mxCell id="TRP02oGcFqluon3LZnlB-586" value="" style="shape=partialRectangle;html=1;whiteSpace=wrap;connectable=0;strokeColor=inherit;overflow=hidden;fillColor=none;top=0;left=0;bottom=0;right=0;pointerEvents=1;" parent="TRP02oGcFqluon3LZnlB-584" vertex="1">
          <mxGeometry x="14" width="14" height="14" as="geometry">
            <mxRectangle width="14" height="14" as="alternateBounds" />
          </mxGeometry>
        </mxCell>
        <mxCell id="TRP02oGcFqluon3LZnlB-587" value="" style="shape=partialRectangle;html=1;whiteSpace=wrap;connectable=0;strokeColor=inherit;overflow=hidden;fillColor=none;top=0;left=0;bottom=0;right=0;pointerEvents=1;" parent="TRP02oGcFqluon3LZnlB-584" vertex="1">
          <mxGeometry x="28" width="14" height="14" as="geometry">
            <mxRectangle width="14" height="14" as="alternateBounds" />
          </mxGeometry>
        </mxCell>
        <mxCell id="TRP02oGcFqluon3LZnlB-588" value="" style="shape=partialRectangle;html=1;whiteSpace=wrap;connectable=0;strokeColor=inherit;overflow=hidden;fillColor=none;top=0;left=0;bottom=0;right=0;pointerEvents=1;" parent="TRP02oGcFqluon3LZnlB-584" vertex="1">
          <mxGeometry x="42" width="14" height="14" as="geometry">
            <mxRectangle width="14" height="14" as="alternateBounds" />
          </mxGeometry>
        </mxCell>
        <mxCell id="TRP02oGcFqluon3LZnlB-589" value="" style="shape=partialRectangle;html=1;whiteSpace=wrap;connectable=0;strokeColor=inherit;overflow=hidden;fillColor=none;top=0;left=0;bottom=0;right=0;pointerEvents=1;" parent="TRP02oGcFqluon3LZnlB-584" vertex="1">
          <mxGeometry x="56" width="14" height="14" as="geometry">
            <mxRectangle width="14" height="14" as="alternateBounds" />
          </mxGeometry>
        </mxCell>
        <mxCell id="TRP02oGcFqluon3LZnlB-590" value="" style="shape=partialRectangle;html=1;whiteSpace=wrap;connectable=0;strokeColor=inherit;overflow=hidden;fillColor=none;top=0;left=0;bottom=0;right=0;pointerEvents=1;" parent="TRP02oGcFqluon3LZnlB-584" vertex="1">
          <mxGeometry x="70" width="14" height="14" as="geometry">
            <mxRectangle width="14" height="14" as="alternateBounds" />
          </mxGeometry>
        </mxCell>
        <mxCell id="TRP02oGcFqluon3LZnlB-591" value="" style="shape=partialRectangle;html=1;whiteSpace=wrap;connectable=0;strokeColor=inherit;overflow=hidden;fillColor=none;top=0;left=0;bottom=0;right=0;pointerEvents=1;" parent="TRP02oGcFqluon3LZnlB-584" vertex="1">
          <mxGeometry x="84" width="13" height="14" as="geometry">
            <mxRectangle width="13" height="14" as="alternateBounds" />
          </mxGeometry>
        </mxCell>
        <mxCell id="TRP02oGcFqluon3LZnlB-592" value="" style="shape=partialRectangle;html=1;whiteSpace=wrap;connectable=0;strokeColor=inherit;overflow=hidden;fillColor=none;top=0;left=0;bottom=0;right=0;pointerEvents=1;" parent="TRP02oGcFqluon3LZnlB-584" vertex="1">
          <mxGeometry x="97" width="14" height="14" as="geometry">
            <mxRectangle width="14" height="14" as="alternateBounds" />
          </mxGeometry>
        </mxCell>
        <mxCell id="TRP02oGcFqluon3LZnlB-593" value="" style="shape=partialRectangle;html=1;whiteSpace=wrap;connectable=0;strokeColor=inherit;overflow=hidden;fillColor=none;top=0;left=0;bottom=0;right=0;pointerEvents=1;" parent="TRP02oGcFqluon3LZnlB-584" vertex="1">
          <mxGeometry x="111" width="14" height="14" as="geometry">
            <mxRectangle width="14" height="14" as="alternateBounds" />
          </mxGeometry>
        </mxCell>
        <mxCell id="TRP02oGcFqluon3LZnlB-594" value="" style="shape=partialRectangle;html=1;whiteSpace=wrap;connectable=0;strokeColor=inherit;overflow=hidden;fillColor=none;top=0;left=0;bottom=0;right=0;pointerEvents=1;" parent="TRP02oGcFqluon3LZnlB-584" vertex="1">
          <mxGeometry x="125" width="14" height="14" as="geometry">
            <mxRectangle width="14" height="14" as="alternateBounds" />
          </mxGeometry>
        </mxCell>
        <mxCell id="TRP02oGcFqluon3LZnlB-595" value="" style="shape=partialRectangle;html=1;whiteSpace=wrap;connectable=0;strokeColor=inherit;overflow=hidden;fillColor=none;top=0;left=0;bottom=0;right=0;pointerEvents=1;" parent="TRP02oGcFqluon3LZnlB-584" vertex="1">
          <mxGeometry x="139" width="14" height="14" as="geometry">
            <mxRectangle width="14" height="14" as="alternateBounds" />
          </mxGeometry>
        </mxCell>
        <mxCell id="TRP02oGcFqluon3LZnlB-596" value="" style="shape=partialRectangle;html=1;whiteSpace=wrap;connectable=0;strokeColor=inherit;overflow=hidden;fillColor=none;top=0;left=0;bottom=0;right=0;pointerEvents=1;" parent="TRP02oGcFqluon3LZnlB-584" vertex="1">
          <mxGeometry x="153" width="14" height="14" as="geometry">
            <mxRectangle width="14" height="14" as="alternateBounds" />
          </mxGeometry>
        </mxCell>
        <mxCell id="TRP02oGcFqluon3LZnlB-597" value="" style="shape=tableRow;horizontal=0;startSize=0;swimlaneHead=0;swimlaneBody=0;strokeColor=inherit;top=0;left=0;bottom=0;right=0;collapsible=0;dropTarget=0;fillColor=none;points=[[0,0.5],[1,0.5]];portConstraint=eastwest;" parent="TRP02oGcFqluon3LZnlB-583" vertex="1">
          <mxGeometry y="14" width="167" height="14" as="geometry" />
        </mxCell>
        <mxCell id="TRP02oGcFqluon3LZnlB-598" value="" style="shape=partialRectangle;html=1;whiteSpace=wrap;connectable=0;strokeColor=inherit;overflow=hidden;fillColor=none;top=0;left=0;bottom=0;right=0;pointerEvents=1;" parent="TRP02oGcFqluon3LZnlB-597" vertex="1">
          <mxGeometry width="14" height="14" as="geometry">
            <mxRectangle width="14" height="14" as="alternateBounds" />
          </mxGeometry>
        </mxCell>
        <mxCell id="TRP02oGcFqluon3LZnlB-599" value="" style="shape=partialRectangle;html=1;whiteSpace=wrap;connectable=0;strokeColor=inherit;overflow=hidden;fillColor=none;top=0;left=0;bottom=0;right=0;pointerEvents=1;" parent="TRP02oGcFqluon3LZnlB-597" vertex="1">
          <mxGeometry x="14" width="14" height="14" as="geometry">
            <mxRectangle width="14" height="14" as="alternateBounds" />
          </mxGeometry>
        </mxCell>
        <mxCell id="TRP02oGcFqluon3LZnlB-600" value="" style="shape=partialRectangle;html=1;whiteSpace=wrap;connectable=0;strokeColor=inherit;overflow=hidden;fillColor=none;top=0;left=0;bottom=0;right=0;pointerEvents=1;" parent="TRP02oGcFqluon3LZnlB-597" vertex="1">
          <mxGeometry x="28" width="14" height="14" as="geometry">
            <mxRectangle width="14" height="14" as="alternateBounds" />
          </mxGeometry>
        </mxCell>
        <mxCell id="TRP02oGcFqluon3LZnlB-601" value="" style="shape=partialRectangle;html=1;whiteSpace=wrap;connectable=0;strokeColor=inherit;overflow=hidden;fillColor=none;top=0;left=0;bottom=0;right=0;pointerEvents=1;" parent="TRP02oGcFqluon3LZnlB-597" vertex="1">
          <mxGeometry x="42" width="14" height="14" as="geometry">
            <mxRectangle width="14" height="14" as="alternateBounds" />
          </mxGeometry>
        </mxCell>
        <mxCell id="TRP02oGcFqluon3LZnlB-602" value="" style="shape=partialRectangle;html=1;whiteSpace=wrap;connectable=0;strokeColor=inherit;overflow=hidden;fillColor=none;top=0;left=0;bottom=0;right=0;pointerEvents=1;" parent="TRP02oGcFqluon3LZnlB-597" vertex="1">
          <mxGeometry x="56" width="14" height="14" as="geometry">
            <mxRectangle width="14" height="14" as="alternateBounds" />
          </mxGeometry>
        </mxCell>
        <mxCell id="TRP02oGcFqluon3LZnlB-603" value="" style="shape=partialRectangle;html=1;whiteSpace=wrap;connectable=0;strokeColor=inherit;overflow=hidden;fillColor=none;top=0;left=0;bottom=0;right=0;pointerEvents=1;" parent="TRP02oGcFqluon3LZnlB-597" vertex="1">
          <mxGeometry x="70" width="14" height="14" as="geometry">
            <mxRectangle width="14" height="14" as="alternateBounds" />
          </mxGeometry>
        </mxCell>
        <mxCell id="TRP02oGcFqluon3LZnlB-604" value="" style="shape=partialRectangle;html=1;whiteSpace=wrap;connectable=0;strokeColor=inherit;overflow=hidden;fillColor=none;top=0;left=0;bottom=0;right=0;pointerEvents=1;" parent="TRP02oGcFqluon3LZnlB-597" vertex="1">
          <mxGeometry x="84" width="13" height="14" as="geometry">
            <mxRectangle width="13" height="14" as="alternateBounds" />
          </mxGeometry>
        </mxCell>
        <mxCell id="TRP02oGcFqluon3LZnlB-605" value="" style="shape=partialRectangle;html=1;whiteSpace=wrap;connectable=0;strokeColor=inherit;overflow=hidden;fillColor=none;top=0;left=0;bottom=0;right=0;pointerEvents=1;" parent="TRP02oGcFqluon3LZnlB-597" vertex="1">
          <mxGeometry x="97" width="14" height="14" as="geometry">
            <mxRectangle width="14" height="14" as="alternateBounds" />
          </mxGeometry>
        </mxCell>
        <mxCell id="TRP02oGcFqluon3LZnlB-606" value="" style="shape=partialRectangle;html=1;whiteSpace=wrap;connectable=0;strokeColor=inherit;overflow=hidden;fillColor=none;top=0;left=0;bottom=0;right=0;pointerEvents=1;" parent="TRP02oGcFqluon3LZnlB-597" vertex="1">
          <mxGeometry x="111" width="14" height="14" as="geometry">
            <mxRectangle width="14" height="14" as="alternateBounds" />
          </mxGeometry>
        </mxCell>
        <mxCell id="TRP02oGcFqluon3LZnlB-607" value="" style="shape=partialRectangle;html=1;whiteSpace=wrap;connectable=0;strokeColor=inherit;overflow=hidden;fillColor=none;top=0;left=0;bottom=0;right=0;pointerEvents=1;" parent="TRP02oGcFqluon3LZnlB-597" vertex="1">
          <mxGeometry x="125" width="14" height="14" as="geometry">
            <mxRectangle width="14" height="14" as="alternateBounds" />
          </mxGeometry>
        </mxCell>
        <mxCell id="TRP02oGcFqluon3LZnlB-608" value="" style="shape=partialRectangle;html=1;whiteSpace=wrap;connectable=0;strokeColor=inherit;overflow=hidden;fillColor=none;top=0;left=0;bottom=0;right=0;pointerEvents=1;" parent="TRP02oGcFqluon3LZnlB-597" vertex="1">
          <mxGeometry x="139" width="14" height="14" as="geometry">
            <mxRectangle width="14" height="14" as="alternateBounds" />
          </mxGeometry>
        </mxCell>
        <mxCell id="TRP02oGcFqluon3LZnlB-609" value="" style="shape=partialRectangle;html=1;whiteSpace=wrap;connectable=0;strokeColor=inherit;overflow=hidden;fillColor=none;top=0;left=0;bottom=0;right=0;pointerEvents=1;" parent="TRP02oGcFqluon3LZnlB-597" vertex="1">
          <mxGeometry x="153" width="14" height="14" as="geometry">
            <mxRectangle width="14" height="14" as="alternateBounds" />
          </mxGeometry>
        </mxCell>
        <mxCell id="s36JOqq-BG1c5jQaZJkn-27" value="$$W^Q$$" style="rounded=1;whiteSpace=wrap;html=1;strokeColor=none;" parent="1" vertex="1">
          <mxGeometry x="1.3699999999999974" y="287" width="30" height="10" as="geometry" />
        </mxCell>
        <mxCell id="TRP02oGcFqluon3LZnlB-632" value="" style="endArrow=none;html=1;rounded=0;entryX=0;entryY=0.5;entryDx=0;entryDy=0;dashed=1;dashPattern=8 8;" parent="1" target="-zyO3lyWJpN4oPfw9Fx_-18" edge="1">
          <mxGeometry width="50" height="50" relative="1" as="geometry">
            <mxPoint x="200" y="120" as="sourcePoint" />
            <mxPoint x="99" y="214" as="targetPoint" />
          </mxGeometry>
        </mxCell>
        <mxCell id="TRP02oGcFqluon3LZnlB-634" value="" style="endArrow=none;html=1;rounded=0;entryX=0;entryY=0.5;entryDx=0;entryDy=0;dashed=1;dashPattern=8 8;" parent="1" target="-zyO3lyWJpN4oPfw9Fx_-18" edge="1">
          <mxGeometry width="50" height="50" relative="1" as="geometry">
            <mxPoint x="200" y="300" as="sourcePoint" />
            <mxPoint x="99" y="214" as="targetPoint" />
          </mxGeometry>
        </mxCell>
        <mxCell id="TRP02oGcFqluon3LZnlB-649" value="&lt;b style=&quot;border-color: var(--border-color); font-family: &amp;quot;Times New Roman&amp;quot;;&quot;&gt;&lt;font style=&quot;font-size: 12px;&quot;&gt;Concat&lt;/font&gt;&lt;/b&gt;" style="text;html=1;align=center;verticalAlign=middle;resizable=0;points=[];autosize=1;strokeColor=none;fillColor=none;" parent="1" vertex="1">
          <mxGeometry x="49.74999999999999" y="73" width="60" height="30" as="geometry" />
        </mxCell>
        <mxCell id="s36JOqq-BG1c5jQaZJkn-1" value="" style="shape=table;startSize=0;container=1;collapsible=0;childLayout=tableLayout;" parent="1" vertex="1">
          <mxGeometry x="47.99999999999999" y="300" width="22.12" height="24" as="geometry" />
        </mxCell>
        <mxCell id="s36JOqq-BG1c5jQaZJkn-2" value="" style="shape=tableRow;horizontal=0;startSize=0;swimlaneHead=0;swimlaneBody=0;strokeColor=inherit;top=0;left=0;bottom=0;right=0;collapsible=0;dropTarget=0;fillColor=none;points=[[0,0.5],[1,0.5]];portConstraint=eastwest;" parent="s36JOqq-BG1c5jQaZJkn-1" vertex="1">
          <mxGeometry width="22.12" height="8" as="geometry" />
        </mxCell>
        <mxCell id="s36JOqq-BG1c5jQaZJkn-3" value="" style="shape=partialRectangle;html=1;whiteSpace=wrap;connectable=0;strokeColor=inherit;overflow=hidden;fillColor=none;top=0;left=0;bottom=0;right=0;pointerEvents=1;" parent="s36JOqq-BG1c5jQaZJkn-2" vertex="1">
          <mxGeometry width="7" height="8" as="geometry">
            <mxRectangle width="7" height="8" as="alternateBounds" />
          </mxGeometry>
        </mxCell>
        <mxCell id="s36JOqq-BG1c5jQaZJkn-4" value="" style="shape=partialRectangle;html=1;whiteSpace=wrap;connectable=0;strokeColor=inherit;overflow=hidden;fillColor=none;top=0;left=0;bottom=0;right=0;pointerEvents=1;" parent="s36JOqq-BG1c5jQaZJkn-2" vertex="1">
          <mxGeometry x="7" width="8" height="8" as="geometry">
            <mxRectangle width="8" height="8" as="alternateBounds" />
          </mxGeometry>
        </mxCell>
        <mxCell id="s36JOqq-BG1c5jQaZJkn-5" value="" style="shape=partialRectangle;html=1;whiteSpace=wrap;connectable=0;strokeColor=inherit;overflow=hidden;fillColor=none;top=0;left=0;bottom=0;right=0;pointerEvents=1;" parent="s36JOqq-BG1c5jQaZJkn-2" vertex="1">
          <mxGeometry x="15" width="7" height="8" as="geometry">
            <mxRectangle width="7" height="8" as="alternateBounds" />
          </mxGeometry>
        </mxCell>
        <mxCell id="s36JOqq-BG1c5jQaZJkn-6" value="" style="shape=tableRow;horizontal=0;startSize=0;swimlaneHead=0;swimlaneBody=0;strokeColor=inherit;top=0;left=0;bottom=0;right=0;collapsible=0;dropTarget=0;fillColor=none;points=[[0,0.5],[1,0.5]];portConstraint=eastwest;" parent="s36JOqq-BG1c5jQaZJkn-1" vertex="1">
          <mxGeometry y="8" width="22.12" height="8" as="geometry" />
        </mxCell>
        <mxCell id="s36JOqq-BG1c5jQaZJkn-7" value="" style="shape=partialRectangle;html=1;whiteSpace=wrap;connectable=0;strokeColor=inherit;overflow=hidden;fillColor=none;top=0;left=0;bottom=0;right=0;pointerEvents=1;" parent="s36JOqq-BG1c5jQaZJkn-6" vertex="1">
          <mxGeometry width="7" height="8" as="geometry">
            <mxRectangle width="7" height="8" as="alternateBounds" />
          </mxGeometry>
        </mxCell>
        <mxCell id="s36JOqq-BG1c5jQaZJkn-8" value="" style="shape=partialRectangle;html=1;whiteSpace=wrap;connectable=0;strokeColor=inherit;overflow=hidden;fillColor=none;top=0;left=0;bottom=0;right=0;pointerEvents=1;" parent="s36JOqq-BG1c5jQaZJkn-6" vertex="1">
          <mxGeometry x="7" width="8" height="8" as="geometry">
            <mxRectangle width="8" height="8" as="alternateBounds" />
          </mxGeometry>
        </mxCell>
        <mxCell id="s36JOqq-BG1c5jQaZJkn-9" value="" style="shape=partialRectangle;html=1;whiteSpace=wrap;connectable=0;strokeColor=inherit;overflow=hidden;fillColor=none;top=0;left=0;bottom=0;right=0;pointerEvents=1;" parent="s36JOqq-BG1c5jQaZJkn-6" vertex="1">
          <mxGeometry x="15" width="7" height="8" as="geometry">
            <mxRectangle width="7" height="8" as="alternateBounds" />
          </mxGeometry>
        </mxCell>
        <mxCell id="s36JOqq-BG1c5jQaZJkn-10" value="" style="shape=tableRow;horizontal=0;startSize=0;swimlaneHead=0;swimlaneBody=0;strokeColor=inherit;top=0;left=0;bottom=0;right=0;collapsible=0;dropTarget=0;fillColor=none;points=[[0,0.5],[1,0.5]];portConstraint=eastwest;" parent="s36JOqq-BG1c5jQaZJkn-1" vertex="1">
          <mxGeometry y="16" width="22.12" height="8" as="geometry" />
        </mxCell>
        <mxCell id="s36JOqq-BG1c5jQaZJkn-11" value="" style="shape=partialRectangle;html=1;whiteSpace=wrap;connectable=0;strokeColor=inherit;overflow=hidden;fillColor=none;top=0;left=0;bottom=0;right=0;pointerEvents=1;" parent="s36JOqq-BG1c5jQaZJkn-10" vertex="1">
          <mxGeometry width="7" height="8" as="geometry">
            <mxRectangle width="7" height="8" as="alternateBounds" />
          </mxGeometry>
        </mxCell>
        <mxCell id="s36JOqq-BG1c5jQaZJkn-12" value="" style="shape=partialRectangle;html=1;whiteSpace=wrap;connectable=0;strokeColor=inherit;overflow=hidden;fillColor=none;top=0;left=0;bottom=0;right=0;pointerEvents=1;" parent="s36JOqq-BG1c5jQaZJkn-10" vertex="1">
          <mxGeometry x="7" width="8" height="8" as="geometry">
            <mxRectangle width="8" height="8" as="alternateBounds" />
          </mxGeometry>
        </mxCell>
        <mxCell id="s36JOqq-BG1c5jQaZJkn-13" value="" style="shape=partialRectangle;html=1;whiteSpace=wrap;connectable=0;strokeColor=inherit;overflow=hidden;fillColor=none;top=0;left=0;bottom=0;right=0;pointerEvents=1;" parent="s36JOqq-BG1c5jQaZJkn-10" vertex="1">
          <mxGeometry x="15" width="7" height="8" as="geometry">
            <mxRectangle width="7" height="8" as="alternateBounds" />
          </mxGeometry>
        </mxCell>
        <mxCell id="s36JOqq-BG1c5jQaZJkn-14" value="" style="shape=table;startSize=0;container=1;collapsible=0;childLayout=tableLayout;" parent="1" vertex="1">
          <mxGeometry x="125.37" y="300" width="22.12" height="24" as="geometry" />
        </mxCell>
        <mxCell id="s36JOqq-BG1c5jQaZJkn-15" value="" style="shape=tableRow;horizontal=0;startSize=0;swimlaneHead=0;swimlaneBody=0;strokeColor=inherit;top=0;left=0;bottom=0;right=0;collapsible=0;dropTarget=0;fillColor=none;points=[[0,0.5],[1,0.5]];portConstraint=eastwest;" parent="s36JOqq-BG1c5jQaZJkn-14" vertex="1">
          <mxGeometry width="22.12" height="8" as="geometry" />
        </mxCell>
        <mxCell id="s36JOqq-BG1c5jQaZJkn-16" value="" style="shape=partialRectangle;html=1;whiteSpace=wrap;connectable=0;strokeColor=inherit;overflow=hidden;fillColor=none;top=0;left=0;bottom=0;right=0;pointerEvents=1;" parent="s36JOqq-BG1c5jQaZJkn-15" vertex="1">
          <mxGeometry width="7" height="8" as="geometry">
            <mxRectangle width="7" height="8" as="alternateBounds" />
          </mxGeometry>
        </mxCell>
        <mxCell id="s36JOqq-BG1c5jQaZJkn-17" value="" style="shape=partialRectangle;html=1;whiteSpace=wrap;connectable=0;strokeColor=inherit;overflow=hidden;fillColor=none;top=0;left=0;bottom=0;right=0;pointerEvents=1;" parent="s36JOqq-BG1c5jQaZJkn-15" vertex="1">
          <mxGeometry x="7" width="8" height="8" as="geometry">
            <mxRectangle width="8" height="8" as="alternateBounds" />
          </mxGeometry>
        </mxCell>
        <mxCell id="s36JOqq-BG1c5jQaZJkn-18" value="" style="shape=partialRectangle;html=1;whiteSpace=wrap;connectable=0;strokeColor=inherit;overflow=hidden;fillColor=none;top=0;left=0;bottom=0;right=0;pointerEvents=1;" parent="s36JOqq-BG1c5jQaZJkn-15" vertex="1">
          <mxGeometry x="15" width="7" height="8" as="geometry">
            <mxRectangle width="7" height="8" as="alternateBounds" />
          </mxGeometry>
        </mxCell>
        <mxCell id="s36JOqq-BG1c5jQaZJkn-19" value="" style="shape=tableRow;horizontal=0;startSize=0;swimlaneHead=0;swimlaneBody=0;strokeColor=inherit;top=0;left=0;bottom=0;right=0;collapsible=0;dropTarget=0;fillColor=none;points=[[0,0.5],[1,0.5]];portConstraint=eastwest;" parent="s36JOqq-BG1c5jQaZJkn-14" vertex="1">
          <mxGeometry y="8" width="22.12" height="8" as="geometry" />
        </mxCell>
        <mxCell id="s36JOqq-BG1c5jQaZJkn-20" value="" style="shape=partialRectangle;html=1;whiteSpace=wrap;connectable=0;strokeColor=inherit;overflow=hidden;fillColor=none;top=0;left=0;bottom=0;right=0;pointerEvents=1;" parent="s36JOqq-BG1c5jQaZJkn-19" vertex="1">
          <mxGeometry width="7" height="8" as="geometry">
            <mxRectangle width="7" height="8" as="alternateBounds" />
          </mxGeometry>
        </mxCell>
        <mxCell id="s36JOqq-BG1c5jQaZJkn-21" value="" style="shape=partialRectangle;html=1;whiteSpace=wrap;connectable=0;strokeColor=inherit;overflow=hidden;fillColor=none;top=0;left=0;bottom=0;right=0;pointerEvents=1;" parent="s36JOqq-BG1c5jQaZJkn-19" vertex="1">
          <mxGeometry x="7" width="8" height="8" as="geometry">
            <mxRectangle width="8" height="8" as="alternateBounds" />
          </mxGeometry>
        </mxCell>
        <mxCell id="s36JOqq-BG1c5jQaZJkn-22" value="" style="shape=partialRectangle;html=1;whiteSpace=wrap;connectable=0;strokeColor=inherit;overflow=hidden;fillColor=none;top=0;left=0;bottom=0;right=0;pointerEvents=1;" parent="s36JOqq-BG1c5jQaZJkn-19" vertex="1">
          <mxGeometry x="15" width="7" height="8" as="geometry">
            <mxRectangle width="7" height="8" as="alternateBounds" />
          </mxGeometry>
        </mxCell>
        <mxCell id="s36JOqq-BG1c5jQaZJkn-23" value="" style="shape=tableRow;horizontal=0;startSize=0;swimlaneHead=0;swimlaneBody=0;strokeColor=inherit;top=0;left=0;bottom=0;right=0;collapsible=0;dropTarget=0;fillColor=none;points=[[0,0.5],[1,0.5]];portConstraint=eastwest;" parent="s36JOqq-BG1c5jQaZJkn-14" vertex="1">
          <mxGeometry y="16" width="22.12" height="8" as="geometry" />
        </mxCell>
        <mxCell id="s36JOqq-BG1c5jQaZJkn-24" value="" style="shape=partialRectangle;html=1;whiteSpace=wrap;connectable=0;strokeColor=inherit;overflow=hidden;fillColor=none;top=0;left=0;bottom=0;right=0;pointerEvents=1;" parent="s36JOqq-BG1c5jQaZJkn-23" vertex="1">
          <mxGeometry width="7" height="8" as="geometry">
            <mxRectangle width="7" height="8" as="alternateBounds" />
          </mxGeometry>
        </mxCell>
        <mxCell id="s36JOqq-BG1c5jQaZJkn-25" value="" style="shape=partialRectangle;html=1;whiteSpace=wrap;connectable=0;strokeColor=inherit;overflow=hidden;fillColor=none;top=0;left=0;bottom=0;right=0;pointerEvents=1;" parent="s36JOqq-BG1c5jQaZJkn-23" vertex="1">
          <mxGeometry x="7" width="8" height="8" as="geometry">
            <mxRectangle width="8" height="8" as="alternateBounds" />
          </mxGeometry>
        </mxCell>
        <mxCell id="s36JOqq-BG1c5jQaZJkn-26" value="" style="shape=partialRectangle;html=1;whiteSpace=wrap;connectable=0;strokeColor=inherit;overflow=hidden;fillColor=none;top=0;left=0;bottom=0;right=0;pointerEvents=1;" parent="s36JOqq-BG1c5jQaZJkn-23" vertex="1">
          <mxGeometry x="15" width="7" height="8" as="geometry">
            <mxRectangle width="7" height="8" as="alternateBounds" />
          </mxGeometry>
        </mxCell>
        <mxCell id="s36JOqq-BG1c5jQaZJkn-28" value="&lt;span style=&quot;color: rgb(0, 0, 0); font-family: Helvetica; font-size: 12px; font-style: normal; font-variant-ligatures: normal; font-variant-caps: normal; font-weight: 400; letter-spacing: normal; orphans: 2; text-align: center; text-indent: 0px; text-transform: none; widows: 2; word-spacing: 0px; -webkit-text-stroke-width: 0px; background-color: rgb(255, 255, 255); text-decoration-thickness: initial; text-decoration-style: initial; text-decoration-color: initial; float: none; display: inline !important;&quot;&gt;$$W^K$$&lt;/span&gt;" style="rounded=1;whiteSpace=wrap;html=1;strokeColor=none;" parent="1" vertex="1">
          <mxGeometry x="44.06" y="288.5" width="30" height="7" as="geometry" />
        </mxCell>
        <mxCell id="s36JOqq-BG1c5jQaZJkn-29" value="$$W^V$$" style="rounded=1;whiteSpace=wrap;html=1;strokeColor=none;" parent="1" vertex="1">
          <mxGeometry x="125" y="288.5" width="30" height="7" as="geometry" />
        </mxCell>
        <mxCell id="s36JOqq-BG1c5jQaZJkn-30" value="$$Q_i$$" style="rounded=1;whiteSpace=wrap;html=1;strokeColor=none;fillColor=#F9F7ED;" parent="1" vertex="1">
          <mxGeometry x="9.579999999999977" y="186" width="12.37" height="10" as="geometry" />
        </mxCell>
        <mxCell id="s36JOqq-BG1c5jQaZJkn-31" value="$$K_i$$" style="rounded=1;whiteSpace=wrap;html=1;strokeColor=none;fillColor=#F9F7ED;" parent="1" vertex="1">
          <mxGeometry x="80.07999999999998" y="185" width="10.37" height="12" as="geometry" />
        </mxCell>
        <mxCell id="s36JOqq-BG1c5jQaZJkn-33" value="" style="endArrow=open;html=1;rounded=0;exitX=0.436;exitY=-0.035;exitDx=0;exitDy=0;exitPerimeter=0;endFill=0;entryX=0.632;entryY=1.005;entryDx=0;entryDy=0;entryPerimeter=0;" parent="1" target="TRP02oGcFqluon3LZnlB-66" edge="1">
          <mxGeometry width="50" height="50" relative="1" as="geometry">
            <mxPoint x="55.769999999999975" y="248" as="sourcePoint" />
            <mxPoint x="55.23649999999996" y="204.1840000000002" as="targetPoint" />
          </mxGeometry>
        </mxCell>
        <mxCell id="s36JOqq-BG1c5jQaZJkn-34" value="" style="endArrow=open;html=1;rounded=0;exitX=0.436;exitY=-0.035;exitDx=0;exitDy=0;exitPerimeter=0;endFill=0;entryX=0.21;entryY=1.009;entryDx=0;entryDy=0;entryPerimeter=0;" parent="1" target="TRP02oGcFqluon3LZnlB-66" edge="1">
          <mxGeometry width="50" height="50" relative="1" as="geometry">
            <mxPoint x="-4.500000000000021" y="248" as="sourcePoint" />
            <mxPoint x="-4.630000000000003" y="210" as="targetPoint" />
          </mxGeometry>
        </mxCell>
        <mxCell id="s36JOqq-BG1c5jQaZJkn-37" value="&lt;font style=&quot;font-size: 11px;&quot;&gt;$$Head_i = Softmax(\frac {Q^i * K^i}{\sqrt(d_k)} + Mask) * V^i$$&lt;/font&gt;" style="rounded=1;whiteSpace=wrap;html=1;strokeColor=none;fillColor=#F8DEDD;" parent="1" vertex="1">
          <mxGeometry x="-38.66" y="115" width="219.68" height="20" as="geometry" />
        </mxCell>
        <mxCell id="s36JOqq-BG1c5jQaZJkn-38" value="" style="endArrow=open;html=1;rounded=0;entryX=0.337;entryY=0.988;entryDx=0;entryDy=0;entryPerimeter=0;exitX=0.436;exitY=-0.035;exitDx=0;exitDy=0;exitPerimeter=0;endFill=0;" parent="1" target="TRP02oGcFqluon3LZnlB-350" edge="1">
          <mxGeometry width="50" height="50" relative="1" as="geometry">
            <mxPoint x="32.19999999999997" y="175" as="sourcePoint" />
            <mxPoint x="31.810000000000038" y="146.53200000000004" as="targetPoint" />
          </mxGeometry>
        </mxCell>
        <mxCell id="s36JOqq-BG1c5jQaZJkn-39" value="" style="endArrow=open;html=1;rounded=0;exitX=0.436;exitY=-0.035;exitDx=0;exitDy=0;exitPerimeter=0;endFill=0;entryX=0.733;entryY=1.002;entryDx=0;entryDy=0;entryPerimeter=0;" parent="1" target="TRP02oGcFqluon3LZnlB-350" edge="1">
          <mxGeometry width="50" height="50" relative="1" as="geometry">
            <mxPoint x="127.87999999999997" y="248" as="sourcePoint" />
            <mxPoint x="127.88" y="140" as="targetPoint" />
          </mxGeometry>
        </mxCell>
        <mxCell id="s36JOqq-BG1c5jQaZJkn-40" value="$$V_i$$" style="rounded=1;whiteSpace=wrap;html=1;strokeColor=none;fillColor=#EEEEEE;" parent="1" vertex="1">
          <mxGeometry x="141.37" y="253.5" width="14.63" height="20" as="geometry" />
        </mxCell>
        <mxCell id="s36JOqq-BG1c5jQaZJkn-43" value="" style="shape=orEllipse;perimeter=ellipsePerimeter;whiteSpace=wrap;html=1;backgroundOutline=1;" parent="1" vertex="1">
          <mxGeometry x="312.5" y="170" width="15" height="16" as="geometry" />
        </mxCell>
        <mxCell id="s36JOqq-BG1c5jQaZJkn-47" value="" style="endArrow=open;html=1;rounded=0;entryX=0.5;entryY=1;entryDx=0;entryDy=0;endFill=0;" parent="1" target="-zyO3lyWJpN4oPfw9Fx_-58" edge="1">
          <mxGeometry width="50" height="50" relative="1" as="geometry">
            <mxPoint x="320" y="170" as="sourcePoint" />
            <mxPoint x="370" y="120" as="targetPoint" />
          </mxGeometry>
        </mxCell>
        <mxCell id="s36JOqq-BG1c5jQaZJkn-49" value="" style="shape=orEllipse;perimeter=ellipsePerimeter;whiteSpace=wrap;html=1;backgroundOutline=1;" parent="1" vertex="1">
          <mxGeometry x="312.5" y="39.5" width="15" height="16" as="geometry" />
        </mxCell>
        <mxCell id="s36JOqq-BG1c5jQaZJkn-54" value="" style="endArrow=open;html=1;rounded=0;fontFamily=Helvetica;fontSize=12;fontColor=default;endFill=0;entryX=0;entryY=0.5;entryDx=0;entryDy=0;" parent="1" target="s36JOqq-BG1c5jQaZJkn-49" edge="1">
          <mxGeometry width="50" height="50" relative="1" as="geometry">
            <mxPoint x="320" y="160" as="sourcePoint" />
            <mxPoint x="310" y="47" as="targetPoint" />
            <Array as="points">
              <mxPoint x="250" y="160" />
              <mxPoint x="250" y="47" />
            </Array>
          </mxGeometry>
        </mxCell>
      </root>
    </mxGraphModel>
  </diagram>
</mxfile>
